<?xml version="1.0" encoding="UTF-8"?> <!-- Generator: Adobe Illustrator 24.0.1, SVG Export Plug-In . SVG Version: 6.00 Build 0) --> <svg xmlns="http://www.w3.org/2000/svg" xmlns:xlink="http://www.w3.org/1999/xlink" version="1.1" id="Main" x="0px" y="0px" width="510.2px" height="510.2px" viewBox="0 0 510.2 510.2" style="enable-background:new 0 0 510.2 510.2;" xml:space="preserve"> <style type="text/css"> .st0{fill:#C52C1E;} </style> <g> <path class="st0" d="M255.1,435.2c-102.8,0-206.9-19.7-206.9-57.5c0-35.4,89.7-52.5,166.5-56.5l0.8,15.3 c-99.1,5.1-151.9,27.1-151.9,41.1c0,17.2,74.6,42.1,191.5,42.1s191.5-25,191.5-42.1c0-8.2-22.3-24.1-83.9-34.1l2.5-15.1 c36.1,5.9,96.8,20.2,96.8,49.3C462,415.4,357.9,435.2,255.1,435.2z"></path> <path class="st0" d="M255.1,465.8c-79.7,0-172.9-14.8-189.1-47.3l-15.5-31.2l13.7-6.8l15.5,31.2c9.3,18.7,79,38.8,175.4,38.8 s166.1-20.2,175.4-38.8l15.4-31.2l13.7,6.8l-15.4,31.2C428.1,451,334.9,465.8,255.1,465.8z"></path> <path class="st0" d="M178.5,266.6c-33.8,0-61.3-27.5-61.3-61.3c0-12.2,3.6-23.9,10.3-34l4.3-6.4l102,68l-4.3,6.4 C218.1,256.4,199,266.6,178.5,266.6z M136.5,186.5c-2.6,5.9-4,12.2-4,18.8c0,25.3,20.6,46,46,46c12.8,0,24.8-5.3,33.5-14.5 L136.5,186.5z"></path> <path class="st0" d="M316.4,190c-4.1,0-7.9-1.6-10.8-4.5l-15.3-15.3c-2.9-2.9-4.5-6.7-4.5-10.8c0-5.1,2.5-9.8,6.7-12.7l11.2-9 l-5.8-5.8c-2.9-2.9-4.5-6.7-4.5-10.8c0-4.2,1.6-8.1,4.6-11c8-7.9,19.3-12,33.7-12c25.3,0,46,20.6,46,46c0,14.2-4,25.5-12,33.7 c-5.8,5.9-16,6-21.8,0.1l-5.8-5.8l-9.1,11.4C326.1,187.6,321.4,190,316.4,190z M331.7,113.4c-10.2,0-17.9,2.6-22.9,7.6l17.8,18 l-25.1,20l14.8,15.7l0.4-0.6l20-25l17.9,17.9c5.1-5.2,7.7-13,7.7-23C362.4,127.1,348.6,113.4,331.7,113.4z"></path> <path class="st0" d="M278.3,381.5c-13.1,0-24.8-4.9-33.2-13.8c-9.3-9.8-13.8-23.9-12.9-39.4c2.3-37,34.3-69.4,68.6-69.4 c13.1,0,24.8,4.9,33.2,13.8c9.3,9.8,13.8,23.9,12.9,39.4C344.6,349.1,312.6,381.5,278.3,381.5z M300.9,274.3 c-26.1,0-51.5,26.2-53.3,55c-0.7,11.3,2.4,21.2,8.7,28c5.5,5.9,13.1,8.9,22,8.9c26.1,0,51.5-26.2,53.3-55c0.7-11.3-2.4-21.2-8.7-28 C317.4,277.4,309.8,274.3,300.9,274.3z"></path> <rect x="393" y="82.7" class="st0" width="15.3" height="53.6"></rect> <rect x="416" y="236" class="st0" width="15.3" height="46"></rect> <rect x="416" y="197.7" class="st0" width="15.3" height="15.3"></rect> <rect x="55.9" y="205.3" class="st0" width="15.3" height="69"></rect> <rect x="55.9" y="289.6" class="st0" width="15.3" height="15.3"></rect> <rect x="109.5" y="44.4" class="st0" width="15.3" height="61.3"></rect> <rect x="109.5" y="121" class="st0" width="15.3" height="15.3"></rect> <rect x="247.5" y="205.3" class="st0" width="15.3" height="53.6"></rect> <path class="st0" d="M312.6,404.5v-15.3c3.8,0,7.6-0.1,11.3-0.2l0.5,15.3C320.5,404.5,316.5,404.5,312.6,404.5z"></path> <path class="st0" d="M342.5,403.4l-1.2-15.3c22.3-1.7,41.3-5.5,52.2-10.2l6.1,14C387.1,397.4,366.8,401.5,342.5,403.4z"></path> <path class="st0" d="M228.3,159.3c-6.4,0-12.6-2.3-17.4-6.4l-31.1-31.1c-5.5-4.7-8.9-12.1-8.9-20c0-14.8,12-26.8,26.8-26.8 c6.4,0,12.6,2.3,17.4,6.4l0.4,0.4l30.6,30.6c5.5,4.7,8.9,12.1,8.9,20C255.1,147.3,243.1,159.3,228.3,159.3z M197.7,90.4 c-6.3,0-11.5,5.2-11.5,11.5c0,3.4,1.5,6.5,4,8.7l31.1,31c1.6,1.4,4.3,2.3,7,2.3c6.3,0,11.5-5.2,11.5-11.5c0-3.4-1.5-6.5-4-8.7 L204.9,93C202.9,91.3,200.3,90.4,197.7,90.4z"></path> <polygon class="st0" points="293.4,335.6 278.1,335.6 278.1,350.9 293.4,350.9 "></polygon> <polygon class="st0" points="316.4,289.6 301.1,289.6 301.1,304.9 316.4,304.9 "></polygon> <polygon class="st0" points="285.8,304.9 270.4,304.9 270.4,320.2 285.8,320.2 "></polygon> <rect x="247.5" y="174.7" class="st0" width="15.3" height="15.3"></rect> </g> </svg> 