<?xml version="1.0" encoding="UTF-8"?> <!-- Generator: Adobe Illustrator 24.0.1, SVG Export Plug-In . SVG Version: 6.00 Build 0) --> <svg xmlns="http://www.w3.org/2000/svg" xmlns:xlink="http://www.w3.org/1999/xlink" version="1.1" id="Vrstva_2" x="0px" y="0px" width="495.4px" height="354.1px" viewBox="0 0 495.4 354.1" style="enable-background:new 0 0 495.4 354.1;" xml:space="preserve"> <style type="text/css"> .st0{fill:#FFFFFF;} .st1{stroke:#000000;stroke-width:0.5;stroke-miterlimit:10;} .st2{fill:#FFFFFF;stroke:#000000;stroke-width:0.5;stroke-miterlimit:10;} </style> <path class="st0" d="M125.9,182.6c0.5-0.4,1-0.1,1,0.7C126.3,183.2,126,183.1,125.9,182.6z"></path> <path class="st0" d="M125.9,182.6c0.5-0.4,1-0.1,1,0.7C126.3,183.2,126,183.1,125.9,182.6z"></path> <g> <path d="M52.1,192.7c2.8,0,5.4,0.7,7.8,2.1c2.4,1.4,4.2,3.3,5.6,5.6c1.4,2.4,2.1,5,2.1,7.8V286H57.3v-77.7c0-1.4-0.5-2.7-1.5-3.7 s-2.2-1.5-3.7-1.5c-1.4,0-2.6,0.5-3.6,1.5c-1,1-1.5,2.2-1.6,3.7V286H36.6v-77.7c0-1.4-0.5-2.7-1.5-3.7c-1-1-2.2-1.5-3.7-1.5 c-1.4,0-2.6,0.5-3.6,1.5c-1,1-1.5,2.2-1.6,3.7V286H15.8v-77.7c0-3,0.8-5.8,2.4-8.3c0.4-0.7,0.9-1.4,1.5-2c0.2-0.2,0.4-0.4,0.6-0.6 c0.4-0.4,0.8-0.7,1.2-1.1h0c0.2-0.2,0.4-0.3,0.6-0.5c0.4-0.3,0.9-0.6,1.3-0.9c0.1,0,0.1-0.1,0.2-0.1c0.2-0.1,0.4-0.2,0.6-0.3 c0.2-0.1,0.4-0.2,0.6-0.3c0.8-0.4,1.6-0.7,2.4-0.9c0.3-0.1,0.5-0.1,0.8-0.2c0.2,0,0.4-0.1,0.6-0.1c0.9-0.2,1.8-0.3,2.7-0.3 c2,0,3.9,0.3,5.6,1c1.8,0.7,3.3,1.7,4.7,2.9c1.4-1.3,3-2.2,4.7-2.9C48.2,193,50.1,192.7,52.1,192.7z"></path> <path d="M95.3,192.7c2.9,0,5.5,0.7,7.8,2.1c2.3,1.4,4.2,3.3,5.6,5.6c1.4,2.4,2.1,5,2.1,7.8V286h-10.4v-31.1H90.1V286H79.7v-77.7 c0-3,0.8-5.8,2.4-8.3c0.4-0.7,1-1.4,1.5-2c0,0,0,0,0,0c0.2-0.2,0.3-0.4,0.5-0.6c0,0,0,0,0,0c0.4-0.4,0.8-0.7,1.2-1.1h0 c0.2-0.2,0.4-0.3,0.6-0.5c0.4-0.3,0.9-0.6,1.3-0.9c0.1,0,0.1-0.1,0.2-0.1c0.2-0.1,0.4-0.2,0.6-0.3c0.2-0.1,0.4-0.2,0.6-0.3 c0.8-0.4,1.6-0.7,2.4-0.9c0.3-0.1,0.5-0.1,0.8-0.2c0.2,0,0.4-0.1,0.6-0.1C93.4,192.8,94.4,192.7,95.3,192.7z M90.1,244.5h10.4 v-36.3c0-1.4-0.5-2.7-1.5-3.7c-1-1-2.2-1.5-3.7-1.5c-1.4,0-2.6,0.5-3.6,1.5c-1,1-1.5,2.2-1.6,3.7V244.5z"></path> <path d="M138.4,192.7c2.9,0,5.5,0.7,7.8,2.1c2.3,1.4,4.2,3.3,5.6,5.6c1.4,2.4,2.1,5,2.1,7.8v62.2c0,0.3,0,0.5,0,0.8 c0,0.2,0,0.3,0,0.5c0,0.5-0.1,1-0.2,1.4c0,0.2-0.1,0.4-0.1,0.7c0,0,0,0,0,0.1c-0.1,0.3-0.1,0.5-0.2,0.8c-0.1,0.3-0.2,0.6-0.3,0.9 c-0.2,0.5-0.4,1-0.6,1.6c-0.1,0.2-0.3,0.5-0.4,0.7c0,0.1,0,0.1-0.1,0.2h0c-0.1,0.2-0.2,0.4-0.3,0.6c-0.1,0.2-0.3,0.5-0.5,0.7 c-0.2,0.2-0.3,0.4-0.5,0.7c-0.1,0.1-0.2,0.3-0.3,0.4c0,0-0.1,0.1-0.1,0.1c0,0,0,0-0.1,0c0,0,0,0,0,0.1c-0.2,0.2-0.3,0.4-0.5,0.6 c-0.4,0.4-0.8,0.8-1.2,1.1c0,0,0,0,0,0c-2.8,2.4-6.1,3.5-9.9,3.5h-15.5v-93.3H138.4z M133.3,275.6h5.2c1.4,0,2.7-0.5,3.7-1.5 c1-1,1.5-2.2,1.5-3.7v-62.2c0-1.4-0.5-2.7-1.5-3.7c-1-1-2.2-1.5-3.7-1.5h-5.2V275.6z"></path> <path d="M192.5,192.7V203h-16.1v41.5h10.4v10.4h-10.4v20.7h16.1V286H166v-93.3H192.5z"></path> <path d="M234.7,192.7V286h-10.4v-93.3H234.7z"></path> <path d="M262.3,192.7c2.9,0,5.5,0.7,7.8,2.1c2.3,1.4,4.2,3.3,5.6,5.6c1.4,2.4,2.1,5,2.1,7.8V286h-10.4v-77.7c0-1.4-0.5-2.7-1.5-3.7 c-1-1-2.2-1.5-3.7-1.5c-1.4,0-2.6,0.5-3.6,1.5c-1,1-1.5,2.2-1.6,3.7V286h-10.4v-77.7c0-3,0.8-5.8,2.4-8.3c0.4-0.7,0.9-1.4,1.5-2 c0.1-0.1,0.2-0.2,0.3-0.3c0.1-0.1,0.2-0.2,0.3-0.3c0.3-0.4,0.7-0.7,1.1-1c0.2-0.2,0.4-0.4,0.7-0.6c0.2-0.1,0.4-0.3,0.7-0.4 c0,0,0.1-0.1,0.2-0.1c0.2-0.1,0.3-0.2,0.5-0.3c0.6-0.4,1.3-0.7,2-1c0.1,0,0.2-0.1,0.3-0.1c0,0,0.1,0,0.2-0.1c0,0,0.1,0,0.1,0 c0.2-0.1,0.4-0.1,0.6-0.2c0.2,0,0.4-0.1,0.6-0.1c0.2-0.1,0.5-0.1,0.7-0.2h0c0.2,0,0.4-0.1,0.6-0.1 C260.5,192.8,261.4,192.7,262.3,192.7z"></path> <path d="M320.1,192.7V286h-10.4v-93.3H320.1z"></path> <path d="M363.3,192.7V203h-10.4V286h-10.4V203h-10.4v-10.4H363.3z"></path> <path d="M390.9,192.7c2.9,0,5.5,0.7,7.8,2.1c2.3,1.4,4.2,3.3,5.6,5.6c1.4,2.4,2.1,5,2.1,7.8V286h-10.4v-31.1h-10.4V286h-10.4v-77.7 c0-3,0.8-5.8,2.4-8.3c0.4-0.7,1-1.4,1.5-2c0,0,0,0,0,0c0.2-0.2,0.3-0.4,0.5-0.6c0,0,0,0,0,0c0.4-0.4,0.8-0.7,1.2-1.1h0 c0.2-0.2,0.4-0.3,0.6-0.5c0.4-0.3,0.9-0.6,1.3-0.9c0.1,0,0.1-0.1,0.2-0.1c0.2-0.1,0.4-0.2,0.6-0.3c0.2-0.1,0.4-0.2,0.6-0.3 c0.8-0.4,1.6-0.7,2.4-0.9c0.3-0.1,0.5-0.1,0.8-0.2c0.2,0,0.4-0.1,0.6-0.1C389.1,192.8,390,192.7,390.9,192.7z M385.7,244.5h10.4 v-36.3c0-1.4-0.5-2.7-1.5-3.7c-1-1-2.2-1.5-3.7-1.5c-1.4,0-2.6,0.5-3.6,1.5c-1,1-1.5,2.2-1.6,3.7V244.5z"></path> <path d="M428.9,192.7v82.9H445V286h-26.5v-93.3H428.9z"></path> <path d="M478.2,192.7v46.6c0,0.3,0,0.7,0,1c0,0.3,0,0.5-0.1,0.8c0,0.2,0,0.4-0.1,0.7c0,0,0,0,0,0.1c0,0.2-0.1,0.4-0.1,0.6 c-0.1,0.5-0.2,1-0.4,1.4c0,0.2-0.1,0.4-0.2,0.6c-0.1,0.3-0.2,0.5-0.3,0.8v0c-0.1,0.2-0.2,0.5-0.3,0.8c-0.1,0.2-0.2,0.4-0.3,0.6 c0,0,0,0.1-0.1,0.1c0,0,0,0,0,0.1c0,0,0,0,0,0c-0.3,0.4-0.5,0.9-0.8,1.3c-0.2,0.2-0.3,0.5-0.5,0.7v0c-0.2,0.2-0.3,0.4-0.5,0.6 c-0.3,0.4-0.7,0.8-1.1,1.2c0,0,0,0-0.1,0.1c-0.2,0.2-0.4,0.3-0.6,0.5c-1.4,1.2-3,2.1-4.8,2.7v32h-10.4v-32c-3.1-1.1-5.6-3-7.5-5.6 c-1.9-2.6-2.9-5.6-2.9-9v-46.6h10.4v46.6c0,0.5,0.1,1,0.2,1.5c0.1,0.3,0.2,0.6,0.4,0.9c0.1,0.3,0.3,0.6,0.5,0.8 c0.1,0.1,0.2,0.2,0.3,0.4c0.1,0.1,0.2,0.2,0.4,0.3c0.1,0.1,0.3,0.2,0.4,0.3c0.3,0.2,0.6,0.4,0.9,0.5c0.3,0.1,0.6,0.2,1,0.3 c0.1,0,0.3,0.1,0.5,0.1c0.2,0,0.4,0.1,0.6,0.1c1.4,0,2.7-0.5,3.7-1.5c1-1,1.5-2.2,1.5-3.7v-46.6H478.2z"></path> </g> <path d="M106.5,309.6c0.9,0,1.8,0.2,2.6,0.7s1.4,1.1,1.8,1.8c0.5,0.8,0.7,1.6,0.7,2.6V325c0,0.1,0,0.2,0,0.2c0,0,0,0,0,0 c0,0.1,0,0.1,0,0.2c0,0.2,0,0.3-0.1,0.5c0,0.1,0,0.1,0,0.2c0,0,0,0,0,0c0,0.1,0,0.2-0.1,0.3c0,0.1-0.1,0.2-0.1,0.3 c-0.1,0.2-0.1,0.3-0.2,0.5h0v0c0,0.1-0.1,0.2-0.1,0.2c0,0.1-0.1,0.2-0.1,0.2c0,0.1-0.1,0.2-0.1,0.2c-0.1,0.1-0.1,0.1-0.2,0.2 c0,0-0.1,0.1-0.1,0.1c0,0,0,0,0,0c0,0,0,0,0,0c0,0,0,0,0,0c-0.1,0.1-0.1,0.1-0.2,0.2c-0.1,0.1-0.3,0.3-0.4,0.4l0,0h0 c-0.9,0.8-2,1.2-3.2,1.2h-1.7v10.2h-3.4v-30.7H106.5z M104.8,326.7h1.7c0.5,0,0.9-0.2,1.2-0.5c0.3-0.3,0.5-0.7,0.5-1.2v-10.2 c0-0.5-0.2-0.9-0.5-1.2c-0.3-0.3-0.7-0.5-1.2-0.5h-1.7V326.7z"></path> <path d="M120.7,309.6v30.7h-3.4v-30.7H120.7z"></path> <path d="M136.6,309.6l-0.6,2.6l-5.5,24.7h6.1v3.4h-10.2l6-27.3h-6.1v-3.4H136.6z"></path> <path d="M152.5,309.6l-0.6,2.6l-5.5,24.7h6.1v3.4h-10.2l6-27.3h-6.1v-3.4H152.5z"></path> <path d="M166.9,309.6v3.4h-5.3v13.6h3.4v3.4h-3.4v6.8h5.3v3.4h-8.7v-30.7H166.9z"></path> <path d="M177.8,309.6c0.9,0,1.8,0.2,2.6,0.7c0.8,0.5,1.4,1.1,1.9,1.8c0.5,0.8,0.7,1.6,0.7,2.6V325c0,0.1,0,0.2,0,0.3c0,0,0,0,0,0 c0,0.1,0,0.1,0,0.2c0,0,0,0.1,0,0.1c0,0,0,0,0,0.1c0,0,0,0.1,0,0.1c0,0.1,0,0.1,0,0.2c-0.1,0.3-0.2,0.7-0.3,1c0,0.1-0.1,0.1-0.1,0.2 c0,0,0,0,0,0.1c0,0,0,0.1-0.1,0.1c0,0,0,0,0,0c0,0.1-0.1,0.2-0.1,0.3c-0.1,0.1-0.1,0.2-0.2,0.3c-0.1,0.1-0.2,0.2-0.3,0.3 c0,0.1-0.1,0.1-0.1,0.2c0,0.1-0.1,0.1-0.2,0.2c0,0-0.1,0.1-0.1,0.1c-0.1,0.1-0.1,0.1-0.2,0.2c-0.3,0.2-0.5,0.4-0.8,0.6l0,0.2 l2.7,10.6h-3.4l-2.5-10.2h-0.9v10.2h-3.4v-30.7H177.8z M176.1,326.7h1.7c0.5,0,0.9-0.2,1.2-0.5c0.3-0.3,0.5-0.7,0.5-1.2v-10.2 c0-0.5-0.2-0.9-0.5-1.2c-0.3-0.3-0.7-0.5-1.2-0.5h-1.7V326.7z M181,328.9c-0.3,0.2-0.5,0.4-0.8,0.6l0,0.2c0.1-0.1,0.2-0.2,0.2-0.2 C180.6,329.3,180.8,329.1,181,328.9z"></path> <path d="M192,309.6v30.7h-3.4v-30.7H192z"></path> <path d="M202.8,309.6c0.9,0,1.8,0.2,2.6,0.7s1.4,1.1,1.8,1.8c0.5,0.8,0.7,1.6,0.7,2.6v25.6h-3.4v-10.2h-3.4v10.2h-3.4v-25.6 c0-1,0.3-1.9,0.8-2.7c0.1-0.2,0.3-0.5,0.5-0.7c0,0,0,0,0,0c0.1-0.1,0.1-0.1,0.2-0.2c0,0,0,0,0,0c0.1-0.1,0.2-0.2,0.4-0.4h0 c0.1-0.1,0.1-0.1,0.2-0.2c0.1-0.1,0.3-0.2,0.4-0.3c0,0,0,0,0.1,0c0.1,0,0.1-0.1,0.2-0.1c0.1,0,0.1-0.1,0.2-0.1 c0.3-0.1,0.5-0.2,0.8-0.3c0.1,0,0.2,0,0.3-0.1c0.1,0,0.1,0,0.2,0C202.2,309.6,202.5,309.6,202.8,309.6z M201.1,326.7h3.4v-11.9 c0-0.5-0.2-0.9-0.5-1.2c-0.3-0.3-0.7-0.5-1.2-0.5c-0.5,0-0.9,0.2-1.2,0.5c-0.3,0.3-0.5,0.7-0.5,1.2V326.7z"></path> <path d="M241.7,323.2v3.4h-3.4v-3.4H241.7z"></path> <path d="M272.1,340.4c0.2,0.2,0.3,0.3,0.5,0.5C272.5,340.7,272.3,340.5,272.1,340.4z"></path> <path d="M277.6,309.6c0.7,0,1.4,0.1,2,0.4s1.2,0.6,1.6,1.1c0.5,0.5,0.8,1,1.1,1.6c0.3,0.6,0.4,1.3,0.4,2v5.1h-3.4v-5.1 c0-0.5-0.2-0.9-0.5-1.2c-0.3-0.3-0.7-0.5-1.2-0.5c-0.5,0-0.9,0.2-1.2,0.5c-0.3,0.3-0.5,0.7-0.5,1.2V325c0,0.5,0.2,0.9,0.5,1.2 c0.3,0.3,0.7,0.5,1.2,0.5c0.2,0,0.4,0,0.5,0c1.2,0.2,2.2,0.6,3.1,1.5c0.1,0.1,0.1,0.1,0.2,0.2c0.4,0.5,0.7,1,1,1.6 c0.2,0.6,0.3,1.2,0.3,1.9v3.4c0,0.1,0,0.2,0,0.2c0,0,0,0,0,0c0,0,0,0.1,0,0.1c0,0,0,0,0,0c0,0.2,0,0.3-0.1,0.5c0,0.1,0,0.1,0,0.2 c0,0,0,0,0,0c0,0.1,0,0.2-0.1,0.3c0,0.1-0.1,0.2-0.1,0.3c-0.1,0.2-0.1,0.3-0.2,0.5c0,0.1-0.1,0.2-0.1,0.2c0,0.1-0.1,0.2-0.1,0.2 c-0.1,0.1-0.1,0.2-0.2,0.2c-0.1,0.1-0.1,0.1-0.2,0.2c0,0-0.1,0.1-0.1,0.1c0,0,0,0,0,0c0,0,0,0,0,0c0,0,0,0,0,0 c-0.1,0.1-0.1,0.1-0.2,0.2c-0.1,0.1-0.3,0.3-0.4,0.4c0,0,0,0,0,0c-0.9,0.8-2,1.2-3.2,1.2c-0.9,0-1.8-0.2-2.6-0.7 c-0.8-0.5-1.4-1.1-1.8-1.8c-0.5-0.8-0.7-1.6-0.7-2.6v-1.7h3.4v1.7c0,0.2,0,0.3,0.1,0.5c0,0.1,0.1,0.2,0.1,0.3s0.1,0.2,0.2,0.3 c0,0,0.1,0.1,0.1,0.1c0,0,0.1,0.1,0.1,0.1v0c0.3,0.2,0.7,0.4,1.1,0.4h0c0.5,0,0.9-0.2,1.2-0.5c0.3-0.3,0.5-0.7,0.5-1.2v-3.4 c0-0.5-0.2-0.9-0.5-1.2s-0.7-0.5-1.2-0.5c-0.8,0-1.5-0.2-2.1-0.5c-0.7-0.3-1.2-0.7-1.7-1.3c-0.4-0.5-0.7-1-1-1.5s-0.3-1.2-0.3-1.9 v-10.2c0-1,0.3-1.9,0.8-2.7c0.1-0.2,0.3-0.5,0.5-0.6l0,0c0.1-0.1,0.1-0.1,0.2-0.2c0.1-0.1,0.3-0.3,0.4-0.4c0,0,0,0,0,0 c0.1,0,0.1-0.1,0.2-0.1c0.1-0.1,0.2-0.1,0.3-0.2c0,0,0.1,0,0.1-0.1c0,0,0.1,0,0.1-0.1c0.1,0,0.2-0.1,0.2-0.1c0.1,0,0.1-0.1,0.2-0.1 c0.2-0.1,0.4-0.1,0.6-0.2c0.1,0,0.2,0,0.3-0.1c0.1,0,0.1,0,0.2,0C277,309.6,277.3,309.6,277.6,309.6z"></path> <path d="M273.5,331.2L273.5,331.2c0,0-0.1,0-0.1-0.1c0,0,0,0-0.1,0C273.4,331.1,273.4,331.1,273.5,331.2z"></path> <path d="M277.6,336.9c-0.4,0-0.8-0.1-1.1-0.4C276.8,336.7,277.1,336.9,277.6,336.9L277.6,336.9z"></path> <path d="M291.8,309.6v30.7h-3.4v-30.7H291.8z"></path> <path d="M302.6,309.6c0.9,0,1.8,0.2,2.6,0.7s1.4,1.1,1.8,1.8c0.5,0.8,0.7,1.6,0.7,2.6v25.6h-3.4v-25.6c0-0.5-0.2-0.9-0.5-1.2 c-0.3-0.3-0.7-0.5-1.2-0.5c-0.5,0-0.9,0.2-1.2,0.5s-0.5,0.7-0.5,1.2v25.6h-3.4v-25.6c0-1,0.3-1.9,0.8-2.7c0.1-0.2,0.3-0.5,0.5-0.7 c0,0,0.1-0.1,0.1-0.1c0,0,0.1-0.1,0.1-0.1c0.1-0.1,0.2-0.2,0.4-0.3c0.1-0.1,0.1-0.1,0.2-0.2c0.1,0,0.1-0.1,0.2-0.1c0,0,0,0,0.1,0 c0.1,0,0.1-0.1,0.2-0.1c0.2-0.1,0.4-0.2,0.6-0.3c0,0,0.1,0,0.1,0c0,0,0,0,0.1,0c0,0,0,0,0,0c0.1,0,0.1,0,0.2-0.1c0.1,0,0.1,0,0.2,0 c0.1,0,0.1,0,0.2-0.1h0c0.1,0,0.1,0,0.2,0C302,309.6,302.3,309.6,302.6,309.6z"></path> <path d="M311.7,337.2L311.7,337.2C311.7,337.2,311.7,337.2,311.7,337.2C311.7,337.2,311.7,337.2,311.7,337.2 C311.7,337.1,311.7,337.2,311.7,337.2z"></path> <path d="M317.7,309.7c-0.1,0-0.1,0-0.2,0c-0.1,0-0.2,0-0.3,0.1c-0.1,0-0.2,0.1-0.3,0.1c-0.1,0-0.1,0-0.2,0.1c0,0,0,0,0,0 c-0.1,0-0.1,0-0.2,0.1c0,0,0,0,0,0c-0.1,0-0.2,0.1-0.2,0.1c0,0-0.1,0-0.1,0.1c0,0-0.1,0-0.1,0.1c-0.1,0.1-0.2,0.1-0.3,0.2 c-0.2,0.2-0.4,0.3-0.6,0.5c-0.1,0.1-0.2,0.2-0.3,0.3c0,0,0,0,0,0c-0.2,0.2-0.3,0.4-0.5,0.6c-0.5,0.8-0.8,1.7-0.8,2.7v20.5 c0,0.9,0.2,1.8,0.7,2.6c0.5,0.8,1.1,1.4,1.8,1.8c0.8,0.5,1.6,0.7,2.6,0.7c1.2,0,2.3-0.4,3.2-1.2h0v0c0.1-0.1,0.3-0.2,0.4-0.4 c0.1-0.1,0.1-0.1,0.2-0.2c0.2-0.2,0.4-0.4,0.5-0.7c0-0.1,0.1-0.2,0.1-0.2c0-0.1,0.1-0.2,0.1-0.2c0-0.1,0.1-0.1,0.1-0.2 c0-0.1,0.1-0.2,0.1-0.3c0-0.1,0.1-0.2,0.1-0.3c0-0.1,0-0.2,0.1-0.3c0,0,0,0,0,0c0-0.1,0-0.1,0-0.2c0-0.2,0-0.3,0.1-0.5 c0,0,0-0.1,0-0.1c0,0,0-0.1,0-0.1c0-0.1,0-0.2,0-0.3v-5.1h-3.4v5.1c0,0.5-0.2,0.9-0.5,1.2c-0.3,0.3-0.7,0.5-1.2,0.5 c-0.1,0-0.1,0-0.2,0c-0.4,0-0.7-0.2-0.9-0.4c0,0,0,0,0,0c0,0-0.1-0.1-0.1-0.1c0,0-0.1-0.1-0.1-0.1c-0.1-0.1-0.1-0.2-0.2-0.3 s-0.1-0.2-0.1-0.3c0-0.2-0.1-0.3-0.1-0.5v-20.5c0-0.5,0.2-0.9,0.5-1.2c0.3-0.3,0.7-0.5,1.2-0.5c0.5,0,0.9,0.2,1.2,0.5 c0.3,0.3,0.5,0.7,0.5,1.2v11.9h3.4v-11.9c0-0.7-0.1-1.4-0.4-2c-0.3-0.6-0.6-1.2-1.1-1.6c-0.5-0.5-1-0.8-1.6-1.1s-1.3-0.4-2-0.4 C318.3,309.6,318,309.6,317.7,309.7z"></path> <path d="M317.5,336.5c0.3,0.2,0.6,0.3,0.9,0.4C318,336.8,317.7,336.7,317.5,336.5z"></path> <path d="M317.5,336.5c0.3,0.2,0.6,0.3,0.9,0.4C318,336.8,317.7,336.7,317.5,336.5z"></path> <path d="M338.1,309.6v3.4h-5.3v13.6h3.4v3.4h-3.4v6.8h5.3v3.4h-8.7v-30.7H338.1z"></path> <path d="M357.3,309.6v30.7h-3.4V313H352v-3.4H357.3z"></path> <path d="M367.6,309.6c-0.1,0-0.2,0-0.3,0c0,0-0.1,0-0.1,0c0,0,0,0,0,0c-0.1,0-0.1,0-0.2,0c-0.1,0-0.1,0-0.2,0.1 c-0.2,0.1-0.5,0.1-0.7,0.2c0,0-0.1,0-0.1,0c0,0,0,0-0.1,0c0,0,0,0-0.1,0c0,0-0.1,0-0.1,0.1c-0.4,0.2-0.7,0.4-1,0.7 c0,0-0.1,0.1-0.1,0.1c-0.1,0.1-0.1,0.1-0.2,0.2c-0.2,0.2-0.4,0.4-0.5,0.7c-0.5,0.8-0.8,1.7-0.8,2.7v6.8c0,0.7,0.1,1.4,0.4,2 c0.3,0.6,0.6,1.2,1.1,1.6c0.5,0.5,1,0.8,1.6,1.1s1.3,0.4,2,0.4c0.4,0,0.7,0,1-0.1l-2.8,13.7h3.4l2.8-14.1c0.4-2,0.6-3.9,0.6-5.9 v-5.4c0-1.4-0.5-2.6-1.4-3.6c-0.9-1-2.1-1.6-3.5-1.7c-0.1,0-0.2,0-0.2,0C367.9,309.6,367.7,309.6,367.6,309.6z M367.6,323.2 c0,0-0.1,0-0.1-0.1c-0.2-0.1-0.4-0.2-0.5-0.4c-0.3-0.3-0.5-0.7-0.5-1.2v-6.8c0-0.5,0.2-0.9,0.5-1.2c0.3-0.3,0.7-0.5,1.2-0.5 c0.5,0,0.9,0.2,1.2,0.5s0.5,0.7,0.5,1.2v6.8c0,0.5-0.2,0.9-0.5,1.2c-0.3,0.3-0.7,0.5-1.2,0.5C367.9,323.2,367.7,323.2,367.6,323.2z"></path> <path d="M383.5,309.6c-0.1,0-0.2,0-0.3,0c0,0-0.1,0-0.1,0c0,0,0,0,0,0c-0.1,0-0.1,0-0.2,0c-0.1,0-0.1,0-0.2,0.1 c-0.2,0.1-0.5,0.1-0.7,0.2c0,0-0.1,0-0.1,0c0,0,0,0-0.1,0c0,0,0,0-0.1,0c0,0-0.1,0-0.1,0.1c-0.4,0.2-0.7,0.4-1,0.7 c0,0-0.1,0.1-0.1,0.1c-0.1,0.1-0.1,0.1-0.2,0.2c-0.2,0.2-0.4,0.4-0.5,0.7c-0.5,0.8-0.8,1.7-0.8,2.7v6.8c0,0.7,0.1,1.4,0.4,2 c0.3,0.6,0.6,1.2,1.1,1.6c0.5,0.5,1,0.8,1.6,1.1s1.3,0.4,2,0.4c0.4,0,0.7,0,1-0.1l-2.8,13.7h3.4l2.8-14.1c0.4-2,0.6-3.9,0.6-5.9 v-5.4c0-1.4-0.5-2.6-1.4-3.6c-0.9-1-2.1-1.6-3.5-1.7c-0.1,0-0.2,0-0.2,0C383.9,309.6,383.7,309.6,383.5,309.6z M383.5,323.2 c0,0-0.1,0-0.1-0.1c-0.2-0.1-0.4-0.2-0.5-0.4c-0.3-0.3-0.5-0.7-0.5-1.2v-6.8c0-0.5,0.2-0.9,0.5-1.2c0.3-0.3,0.7-0.5,1.2-0.5 c0.5,0,0.9,0.2,1.2,0.5s0.5,0.7,0.5,1.2v6.8c0,0.5-0.2,0.9-0.5,1.2c-0.3,0.3-0.7,0.5-1.2,0.5C383.8,323.2,383.7,323.2,383.5,323.2z"></path> <path d="M404.2,309.6v17.1h1.8v3.4h-1.8v10.2h-3.4v-10.2H394l3.1-18.8l0.3-1.7h3.4l-0.3,1.7l-1.5,8.7l-1.1,6.7h2.8v-17.1H404.2z"></path> <g> <path class="st1" d="M429,55.9c-0.4,1-0.7,1.8-1.2,2.5c-1.2,1.4-3,1.4-4.6,2.3c-1,0.6-2,1.9-3.7,2c-0.2,1.3-0.8,2.2-1.5,3 c-3.7,1.2-4.9-2.7-7.1-2.3c-0.8,0.1-1.3,1.7-2.2,2c-1.4,0.5-2.6-0.4-4.3,0c0,0.5-0.5,1.3-1,1.6c1.2,0.6,2.8,1.5,4.2,1.8 c0.8,0.1,1.7,0.4,2.6,0.7c1.3,0.3,2.9,0,3.7,1.2c-0.1,0.9-0.8,0.5-1.4,0.5c-6.9,1.1-15.9,0.6-22.8,1.4c-2.8,0.3-5.6,1-8,0.5 c-6.2,0.6-12.6,0.3-19.6,0.1c-0.2-1.1,0.7-1,1-1.4c-0.9-1.1-2.6-0.7-3.9-0.7c-4.1,0.2-7.5,0.7-11.8,0.4c-1.2-0.1-2.4-0.5-3.7-0.5 c-0.8-0.1-1.8,0.2-2.4-0.4c0-0.6,0.6-0.7,0.8-1.1c-5.1-1.1-10.7,0.2-16.2-0.4c-1.6-0.2-3.2-0.1-4.6-0.4c-1.2-0.2-2.1-0.8-3.1-0.7 c-1.6,0.2-2.3,1.4-3.7,1.2c-1.2-0.2-1.5-1.1-2.6-1.1c-1.1,0-2.7,0.9-3.8-0.4c-2.6-0.2-6.8,0.8-8-1.4c0.4-2.1,3.1-2.1,4.4-3.4 c-1.2-0.3-2.5,0.6-3.8,0.4c-0.6-0.1-0.9-0.5-1.5-0.7c-2.1-0.5-4.4,0.5-6.1-0.1c-0.4-0.5-0.5-1.2-1-1.6c-1.9,0-4.8,0.3-6.1-0.3 c-2.6-1.1-1-3.2,1.2-4.4c1.5-0.8,4.6,0.7,6.4-0.1c-0.7-2.1,1.8-2.9,4.5-2.6c-0.3-1.7-2.2-1.9-2.7-3.4c0-0.5,0.2-0.7,0.4-1 c-1.2-1.2-2.8-1.7-3-3.9c-0.2-2.9,2.3-6.1,4.4-6.9c1.6-0.7,4-0.6,5.4-0.3c0.4-1,0.6-2.3,1.4-3.1c0.9-0.1,1.4-0.6,2.4-0.5 c0.3,1.3-1.2,0.9-1.8,1.2c-1,0.6-0.8,1.7-1.1,3.1c-0.4,0-0.5,0.3-0.7,0.4c-2.2-1.2-5.8-0.6-7.6,1.6c-1.3,1.6-2.3,4.4-0.7,6.1 c0.8,0.8,2,0.7,2.7,2c-0.3,0.3-0.5,0.6-0.7,1.1c1,1.3,2.6,1.9,2.7,4.1c-0.9,0.9-3.5,0-4.6,0.7c-0.1,0.8,0.9,0.6,0.7,1.5 c-2.5,2.1-7.9-0.5-9.8,2.2c0.9,2.2,4.8,1.5,7.2,1.4c0.5,0.6,0.6,1.6,1.4,2c2.1-0.2,5.2-0.6,6.8,0.4c1.8-0.1,6.1-1.3,4.6,1.4 c-1.5,0-3.3,1.1-4.5,2.2c1.1,2.5,5.3,0.6,7.6,1.1c0.9,0.2,2,1.6,3,0.3c2,0.7,4.3,2,6.3,0c2,0.1,3.5,0.7,5.4,0.7 c1.8,0,3.7,0.6,5.7,0.8c2.8,0.3,6-0.5,8.8-0.5c2,0,3.9,0.2,5.6,1c0.1,0.7-0.5,0.6-0.7,1.1c7.4,1.4,14.3,0.3,20.8,0.3 c0.2,0.8,1.1,1.3,0.3,2c8,0.3,16.7,0.3,25-0.4c1.5-0.1,2.8-0.2,3.9-0.4c6.3-1.3,13.4,0.4,19.6-1.1c-2.7-1.4-7.2-1.5-10.1-3.4 c0-0.9,1-0.6,1.1-1.4c-0.4-0.8-1.6-0.9-2.3-1.4c0.6-1.7,3.2-0.2,4.2,0.3c0.7,0,0.4-1,1.1-1c0.7-0.1,0.6,0.7,1.1,0.8 c2.3,0.4,2.2-1.7,3.4-2.5c2,0.2,4.1,3.3,6.5,2.7c0.8-0.2,1.3-1,1.1-2.3c0.9-1.3,3.7-0.7,3.5-3c3.2,0,5.3-1,6.3-3.3 c-0.9-0.9-2.5-0.9-3.7-1.1c-0.7-0.2-1-1.5-1.5-2.4c-0.2-0.4-0.6-0.8-0.7-1.1c-0.2-1,1-3,0.8-4.1c-0.1-0.9-1.3-2.4-1.8-2.9 c-0.3-0.3-1.7-1.3-2.9-1.2c-0.9,0.1-1,1-1.9,1.4c-0.9,0.1-0.4-1.1-1.4-1c-2.1,0.3-0.4,3.7-2.4,3.9c-1.1-0.6-2.5-1.6-4.5-1.6 c-0.1-1.4,0.4-2.2,0.8-3c-0.7-2.8-3.6-4.4-6.7-3.1c-1.2,0.5-2,1.8-2.9,2.6c-2.8-0.4-3.3-3.1-5.7-3.8c-1.3,0.3-2.1,1.6-3.4,1.4 c0.1-1.1,1.1-1.5,1.1-2.5c0-1.2-1.1-1.6-2-2.3c0-0.9,0.6-0.9,0.5-1.6c-0.1-1.1-1.3-1.4-2-2c1.5-0.9,1.5-3-0.5-3.3 c-0.1-1.1,0.7-1.3,1.2-1.8c1-2-0.1-4.1-2.3-4.5c-0.4,0-0.3,0.4-0.7,0.4c-1-1-2.7-2-4.3-1.6c-1.5,0.3-2.2,2.6-1.5,4.1 c-0.3,0.7-1.1,0.9-1.4,1.6c0.5,1.3,2.2,1.4,2.3,3c-0.2,0.3-0.6,0.4-0.8,0.7c-2.8-1.6-9.5-0.5-8.4,3.4c0.5,1.6,2.7,1.5,2.7,3.8 c-0.4,0.6-1.2,0.7-1.8,1.1c-0.9-0.9-1.8-1.6-3.8-1.4c-0.3,0.4-0.5,0.9-0.8,1.2c-0.9-0.4-0.9-1.4-1.8-1.4c-1.1,0-1,1.5-2,1.9 c-0.5-0.6-0.5-1.6-1-2.5c-1.2-0.5-2.3-0.4-3.5-0.8c0-0.7,0.9-0.8,1.2-1.4c1.2-2.2-0.7-5.5-2.4-6.1c-2,0.3-3.1-0.9-4.5-1.5 c-0.2-1.3,1.2-2,1.4-3.1c0.2-1.1-1.1-3.6-2.6-4.4c-1.7-0.8-3.8-0.2-5.3-0.1c-1-1.6-0.9-4.3-3-4.5c-0.8-0.1-1.2,0.5-2,0.3 c0-2.6-2.6-4.3-5.7-3.7c-1.5,0.3-2.2,2.3-3.1,3.1c0.2,1,0.6,1.7,0.8,2.7c-0.9,0.8-2-0.3-3.5,0c-0.6,0.3-0.6,1.2-0.8,1.9 c-0.7,0.3-1.8-0.3-2.6,0.4c-0.1,1.2-0.4,2.2-1,3c-0.1-0.1-0.4-0.1-0.4-0.3c-0.6-0.6,0.9-1.5,0.4-2.9c0.7-0.6,1.9-0.8,2.9-1.2 c0.2-0.5,0.4-1.2,0.8-1.5c1-0.2,2-0.2,3-0.1c-1-2-0.1-2.6,1.2-3.9c0.5-0.5,1.1-1.5,1.9-1.8c1.8-0.6,4.1,0.5,5.6,0.7 c0.4,0.9,0.8,1.7,1.1,2.7c0.9,0.1,1.3,0,2.3,0c1.7,0.7,2.2,2.5,2.7,4.4c3.7-0.9,6.9,0.7,7.9,3.7c0.5,1.6-1.3,2.7-1.1,3.9 c0.2,1.3,3.6,1.1,4.9,2c2.2,1.5,2.7,4.7,1.5,7.1c0.7,0.5,1.9,0.4,2.6,1c0.2,0.5,0.4,1.1,0.7,1.5c0.3-0.5,1.2-1.2,1.4-1.2 c0.5-0.1,0.9,0.4,1.6,0.4c0.7,0.1,3.2-0.4,3.9-0.3c0.9,0.2,1.3,1.3,1.9,1c0.3-2-3.2-2.2-2.3-5.2c1-3.1,5-4.1,8.7-3 c-0.2-1.1-1.4-1.1-1.9-1.9c-0.3-1.5,0.9-1.6,1.2-2.5c-1-1.8,1.2-4.9,2.9-5c0.3,0,0.4,0.3,1,0.4c0.4,0.1,0.9-0.2,1.1-0.1 c0.8,0.2,1.4,1.1,2,1.5c2.9-1.4,5.4,4.1,2.7,6c1.1,0.6,1.9,2.5,0.8,3.7c0.2,0.5,1,0.4,1.2,0.8c0.3,1.1-0.2,1.6,0,2.5 c0.4,1.4,3,1.9,1.4,4.1c0.4,0.1,1.2-0.5,1.5-0.8c2,0.5,3.6,1.4,4.3,3.3c2,1.1,2.9-1.3,4.6-1.9c1.7-0.5,2.6-0.2,4.5-0.3 c0.8,1.1,2.6,1.9,2.9,3.4c0.2,1.2-0.8,1.8-0.5,3.1c1.5-0.1,2.4,0.6,3.5,1.2c-0.1-1.9,1.5-5.1,3.8-3.3c2.7-2.1,6,0.8,7.2,3 c0,1.7-0.3,3.1-0.7,4.5c0.6,1.1,1,2.4,1.8,3.4C426.6,54.3,428,55.2,429,55.9z"></path> <path class="st1" d="M221.8,109.7c-4.2,2-8.4,4.2-12.4,6.5c-3.7,1.6-6.8,3.6-10.7,5.6c-1,0.5-4.8,2.4-4.4-0.7 c0.2-1.1,2.9-2.3,3.8-2.9c4.1-2.4,8.9-4.9,12.5-7.2c-12.5,5.6-24.5,12.5-37.2,18.4c-1.3,0.6-4.6,2.4-5.8,1.8 c-0.2-0.1-0.8-1-0.7-1.6c0.2-1,4.1-2.5,5-3c5.1-2.9,10.5-6.1,15.4-8.6c-12.5,4.2-25.1,9.9-38.1,14.1c-0.7,0.2-1.4,0.8-2.2,0.4 c0.1-0.7,1-0.6,1.5-0.8c1.3-0.5,3.2-1.3,4.6-1.9c5.3-2.3,10.6-3.9,15.9-5.8c2.1-0.7,4.1-1.5,6.1-2.3c2.5-1.1,3.2-1.5,6.1-2.5 c0.5-0.2,1.5-0.6,1.9-0.7c3.5-1.1,7.2-2.5,10.2-3.8c-0.2-0.2-0.4-0.3-1-0.4c-5.4-0.4-12.9-1.5-16.7-2.3c-0.1,0-0.2-0.3,0.2-0.3 c0.3,0,3.9,0.6,4.1,0.7c1.9,0.3,3.8,0.6,5.3,0.8c1.6,0.2,3.4,0.4,4.9,0.5c1.3,0.1,3-0.4,3.7,0.7c2.7-0.9,5.1-2.5,7.6-3.8 c7.5-4,15.3-7.2,22-11.7c1.1-0.7,2.1-1.6,3.1-2.3c2.2-1.6,4.4-3.2,6.7-4.8c1.1-0.8,2.5-1.2,3.7-1.9c2.3-1.4,4.4-3.1,6.8-4.5 c2.4-1.4,4.5-3.2,7.2-4.1c0.7-0.2,1-0.4,1.6-0.4c1.9,0,3.7,1.7,5.4,2.2c1.2,0.3,1.7,0.8,2.9,1.1c3.8,1.1,6.6,2.9,10.1,2.7 c2-0.1,2.9-1.4,4.3-2.4c1.4-0.9,2.9-1.4,4.2-2.2c0.3-0.2,1.1-1,1.3-1.3c2.1-2.1,4.1-2.6,6.9-3.8c0.5-0.2,1-0.4,1.6-0.6 c1.4-0.5,2.8-0.7,4.1-1c2.4-0.6,4.9-0.1,7.2,0.4c5.1,1.2,9.5,3.4,13.6,5.7c3.5,2,7,3.7,10.1,5.6c5,3,9.9,5.8,14.8,8.8 c0.8,0.5,1.7,1,2.4,1.5c2.8,1.7,5,3.2,8,4.9c3.2,1.8,7.8,3.6,12,5.2c4.7,1.8,9.9,3.4,15,5c1.7,0.5,3.3,1.4,4.9,1.7 c2.7,0.5,6-0.2,9.1-0.1c1,0,2.1,0.2,3,0.1c3.2-0.4,6.7-1.5,10-1.8c0.7-0.1,1.7-0.1,2.5-0.2c0.8-0.1,3.3-0.3,2.6,0.4 c-0.1,0.1-1.4,0-2.1,0.1c-3.5,0.2-6.9,1-10.4,1.6c-0.8,0.1-1.6,0.4-2.4,0.5c-2.2,0.3-3.7-0.2-5.8-0.1c-1.3,0.1-2.3,0.1-3.5,0.3 c5.2,1.6,11.2,3.3,17.1,4.5c4.9,1,11.1,1.5,13.9,2.9c0.2,0.1,0.2,0.4-0.2,0.3c-0.7-0.2-0.7-0.2-1.4-0.4c-2.8-0.7-5.5-1.1-8.2-1.6 c-10.9-2-20.9-4.9-30.4-8.1c-2.8-0.9-5.4-2-8.2-2.8c-0.8-0.2-1.7-0.5-2.7-0.9c-4.7-1.8-9.8-3.6-14.2-5.8c-1.5-0.7-2.9-1.5-4.2-2.5 c-2.3-1.6-4.9-2.9-7.3-4.4c-5.8-3.6-11.7-7.3-17.7-10.7c-1.2-0.7-2.4-1.1-3.7-1.7c-1.4-0.7-1.9-0.8-3.3-1.8 c-0.3-0.2-1.7-0.9-1.9-1.1c-4.4-2-8.3-4.2-13.2-5c-2.3-0.4-5.5,0.1-7.9,0.7c-3.2,0.8-5.9,2.3-8.4,3.9c-1,0.6-1.6,1.6-2.4,2.2 c-0.3,0.2-0.8,0.2-1.1,0.4c-0.4,0.2-0.6,0.7-1,1c-0.6,0.4-1.5,0.5-2.2,1c-1.8,1-2.5,2.4-5.2,2.2c-2.6-0.2-4.8-1.1-6.9-1.7 c-1.8-0.5-3.3-1.1-4.8-1.8c-3.4-1.7-4.8-1.7-6.8-2.3c-0.1,0.5-0.3,1.2-0.6,2.1c-0.3,1-2.9,2.4-4.2,3.3c-4.7,3.1-8.9,5.5-13.9,8.3 c-6.5,3.7-12.3,8.1-18.5,11c4.7-2,9.7-4.3,15.4-6.9c3.9-1.8,7.5-3.6,11.1-5.8c1.1-0.7,3.1-1.9,3.8-1.8c0.3,0,1.2,0.5,1.1,1.4 c-0.1,0.8-2.3,1.9-3.4,2.4c-8.6,4.8-17.6,9.8-26.1,14.6c2-0.1,5.7-2.2,8.7-3.2c0.7-0.2,0.6,0.4,0,0.7 C224.9,108.3,222.9,109.2,221.8,109.7z M232.6,93.4c4.5-2.5,9.3-5.3,12.9-8.2c-2.3,1.1-4.5,2.6-6.7,3.9 C236.6,90.6,234.2,91.8,232.6,93.4z M205.1,111.7c1.5-0.6,4.7-1.9,5.8-3C210.1,108.9,206.1,110.8,205.1,111.7z M200.4,113.8 c0.3,0,2.5-0.9,2.7-1c0.3-0.2,0.4-0.2,0.4-0.5C203,112.4,200.6,113.5,200.4,113.8z"></path> <path class="st1" d="M110.5,177.7c0.3-0.2,0.5-0.6,0.8-0.8c1.1-0.8,3,1.1,3.7,0.3c0.9-1.1,1.2-3.1,3-3.5c0.5-0.1,0.9,0.3,1.2,0.3 c1-0.1,1.6-1.5,3.3-0.8c1.1-1.9,3.7-5.7,7.3-3.8c0.4-1.1,1.4-2.8,2.7-3c1.6-0.2,2.9,1.8,4.8,0.8c0.6-1.2,2.2-3.6,3.7-1.9 c0.9-0.2,1.2-1.1,2.6-0.8c0.9-0.4,1.4-1.4,2.6-1.5c0.1-1.2,1.5-2,2.6-2.7c0-1.9,0.3-4,0.3-5.7c-5.6-0.4-10.1,2.1-14.9,3.1 c-3,0.7-6.8,0.8-8.7,2.4c0.1,2.9-0.2,6.5,0.1,8.8c-0.7,0.2-1.7,0.3-2.5,0.4c-0.2-0.4-0.4-0.5-0.5-1.1c-0.6,0.1-1.5,0.5-2.5,0.6 c-0.4-1.1-0.9-2.6-1-4.4c-0.8,0.4-0.3,1-0.3,1.6c0,1.7-0.6,3.9-0.4,5.4c0.1,0.8,1,1.9-0.3,2c-0.9-2.4,0.7-6.7-0.7-9.5 c-1.2-0.3-2.2,0.3-3.1,0.5c-5.9,1.6-8.7,2.3-13.7,3.7c-1,0.3-4.3,1.2-5.1,1.4c-0.1,4,0.2,7.8-0.5,11.4c-0.1,0.3-0.3,0.7-0.8,0.7 c-0.3-0.6-0.8-1.4-1.5-1.2c-0.4,0.1-0.6,0.8-1.4,0.8c-0.6,0-0.8-0.9-1.5-0.7c-0.6,0.2-0.3,1.6-1.2,1.6c-0.5-3.5,1.2-8.4-0.7-12.5 c-0.2-0.4-0.9-0.2-1-0.7c0.1-0.6,0.2-0.6,0.7-0.8c0.3-0.2,0.5,0.1,1.1,0c9.2-2.4,19.3-4,28-6.7c0.7,0.3,0.9,1.1,1.9,1.1 c-0.9-4.3,0-6.6-0.1-10.6c-1.2-1.1-2.8-0.2-4.9,0.1c-4.1,0.6-8.5,0.3-12.6,1.1c-2.9,0.5-6,1.6-7.9,1.1l-0.7-0.3 c0.3-0.5,1.2-0.3,1.9-0.4c-0.6-0.8-1.6-1.2-2.6-1.2c0-1,0.1-1.8-0.1-3.1c-0.3-0.4-1,0.3-1.1-0.4c0.1-1.1,1.4-0.9,2-1.4 c0.5-0.3,0.7-0.9,1.1-1.2c1.2-1,2.9-1.5,3.7-2.9c4.7,0,9.7,0.6,13.9,0.4c0.6,0,1.1-0.6,1.6,0.1c0,0.4-0.3,0.5-0.4,0.8 c-4.3-0.2-8.4-0.4-13-0.4h-0.7c0.7,1.7,3,2.9,4.2,4.5c0.1,1.3-1.1,1.7-0.8,3.3c3.6-0.1,5.9-0.4,8.7-0.8c0.1-1.1-0.2-2.7,0.3-3.4 c0.9,0.7,3.7,0.9,4.4-0.1c0.6-0.1,0.7,0.2,1.1,0.4c4.8-0.6,9.7-1.9,14.7-1.9c-0.2,2.1-0.6,5.1-0.7,7.2c0,0.8,0.4,2-0.7,2.2 c-0.3-1.8,0.7-6.2,0.1-8.3c-4.8-0.1-9.1,1.3-13.9,1.6c0,0.8,0,0.9,0,1.8c0.9-0.5,2.3-0.5,3.3-0.1c0.7,2.6-1,5.1,0,7.6 c5.5-0.2,10-2.4,15.2-3.3c-0.4-1.6,0-5.6,0.1-7.2c1.7-0.1,4.2,0.1,5.8-0.7c-0.2-1.8,0.2-3.6-0.3-5.2c-1.5-0.6-3.1-0.2-4.5-0.7 c0-1.3,0.3-2.1,0.4-3.5c-4.1,0.8-8.4,1-11.8,1.6c0.2,0.6,0.2,2.9,0.3,3.5c-0.5,0.4-0.9,0.4-1.4,0.4c-1.5,0-3.6-0.3-4.7-0.8 c-0.1-0.8-0.2-3.4-0.1-5c-1.4-0.1-3.1,0.1-4-0.8c0.3-0.9,1.5-0.2,2.2-0.3c1.3-0.1,2.7-0.1,3.3-0.5c-0.5-1.9-2.7-0.6-3.7-1 c0.1-0.8,1.2-0.7,2-0.8c0.2-2.4-0.2-4.6-1.4-6.3c-0.5-0.7-1.9-1-2.5-1.6c-0.4,0.1-0.4,0.6-0.6,0.9c-2.1,1.7-3.1,3.6-3.5,6.9 c0.3,0.7,0.5,1.3,0.3,1.9c0.3,0.9,1.2,1.1,1.9,1.5c0,0.4,0,0.7,0,1.1c-0.6,0.3-1.2,0.2-2,0.5c-0.2,2,0.2,2.9-0.3,4.2 c-1-0.1-1.9-0.1-2.8-0.1c-0.4-1.7,0.4-3.8-0.1-5.2c-0.5-1.4-1.7-1.3-1.8-2.3c0-1,0.6-1.8,1.5-2c0.1-4.3,2.8-6,4.8-8.4 c0-1.2,0.5-1.8,0.8-2.7c1.8-0.8,2.3,1.3,2.7,2.7c2.5,0.6,3.8,3.1,4,6c0.1,0.9,0,1.9,0.1,2.3c0.2,0.7,1,0.9,1.1,1.4 c0.2,0.9,0.4,1.1,0,1.8c-0.2,0.4-0.4,0.6-0.9,0.6c-0.2,0.5-0.4,3.6-0.2,4.2c0.8,0.4,0.9,0.2,1.9,0.5c0.7,0.2,0.8,0.4,0.8-0.2 c-0.1-0.5,0.4-2-0.1-2.6c0.7-1,2.1-0.6,3.3-0.7c3.3-0.3,7.2-1,10.2-1.4c0.5-0.3,1.2-1,2-0.5c-0.2,1.2-0.7,2-0.5,3.5 c3.8,1.7,9.3,0,13.9-0.4c2.9-0.3,5.4,0.1,7.9,0c0.6,1.4-0.5,3.8,0.4,4.9c1.1,1.3,4,0.1,5.7,0c0.5,0.7,0.5,2.2,0.7,2.6 c2.3,0.2,4.2,0.1,6.4,0.3c0.3-1.9-0.1-4.9,0.3-6.3c1.4,0.2,3-0.1,4.2-0.1c0.8,0,1.9,0.2,2.8,0c-0.1-1.2,0-2.3-0.2-3.6 c4.5-0.3,10.7-0.8,15.6-1.5c0.1,1.5,0.1,3.1,0.5,5c0.2,0.3,0.9,0.1,1.3,0.2c0,0,0.3-2.2,0.3-2.9c0.1-2.7,0.4-4.3-0.1-7.1 c0.2-0.1,0.4-0.3,0.5-0.5c8.7-0.4,19.2-0.3,26.5-1.6c0.4,0.5,0.4,1.4,0.8,1.9c4.8,0.3,9.7,1,14.3,1.1c0.2,0.5,0,0.9,0,1.4 c0.4,0,0.8,0,1.2,0c2.1,0,3.5,0,5.3,0c3.4,0.1,6.6-0.3,9.9-0.5c3-0.2,6.1-0.5,9.5-1c1.6-0.2,3.2-0.3,4.9-0.4c2-0.2,4.2-0.7,6.9-1.1 c1.1-0.2,2-0.4,2.8-0.5c1.8-0.3,2.6-0.3,4.5-0.2c0.5-0.1,2.5,0,2.8,0c5.8-0.1,9.3-0.1,15.3,0.2c4.9,0.2,9.7-0.7,14.9-1 c3.5-0.2,6.1-0.6,9.1-0.5c14.9,0.4,29.8-0.3,45.3,0.4c12.8,0.6,27.8-0.3,38.3-0.3c1,0-0.3,0.5-1.4,0.5c-2.9,0.1-5.8,0-8,0.2 c-1.9,0.1-3.9,0.2-5.9,0.2c-5.3,0.1-11,0.4-16.6,0.1c-8.8-0.4-17.5-0.2-26.2-0.2c-6.1,0-14.3-0.1-21.1-0.1c-2.3,0-5-0.3-7.6-0.2 c-2.2,0.1-4,0.5-7.2,0.7c-4.2,0.2-8.4,1-12.4,1c-7.1-0.2-13.5,0.2-21.1,0c-0.6,0-1.8,0.1-2.4,0.1c-0.9,0.1-1.7,0.2-2.8,0.4 c-0.5,0.1-1.5,0.2-2,0.2c-1.9,0.1-3.2,0.8-5.4,0.9c-7.7,0.6-16.6,1.8-25.7,1.6c-1.3,0-4.1,0.4-5.2,0.1c0.1,1.3,0.3,4.2-0.4,5.4 c-0.4,0.1-0.4-0.2-0.7-0.1c-0.1-1.5,0.5-4.4-0.1-6.5c-4.4-0.9-9.8-1.1-14.3-1.2c-0.4-0.3,0.3-1-0.1-1.4c-1-1-4.4,0-6.3,0.1 c-5.1,0.4-11.9,0.1-16.6,0.8c-0.2,1.7-0.5,3.6-0.7,5c-0.2,1.7-0.1,2.8-0.5,4c-0.7,0.1-1.2-0.1-1.8-0.1c0.1,0.5,0.2,0.4,0.2,1.1 c3.6-0.8,9.2-0.7,13.2-1.1c0.2-0.4-0.5-1.6,0-2.3c0.6-0.3,0.9,0.2,1.4,0.4c4.7-1.1,9.8-1.3,14.8-1.9c0.6,0.7,0.7,1.8,1,2.9 c4.3,1,9.3,0.5,13.6,0.4c0.1,0.6-0.2,0.9-0.1,1.6c0.7,0.4,2-0.1,2.6,0.1c0.7,2.1-0.7,5.8,0.8,6.5c0.5,0.2,1.1-0.5,1.9,0 c-0.1,0.9,0.2,1.3,0.5,1.8c-0.1,0.4-0.7,0.3-0.8,0.7c-0.5-0.3-0.4-1.2-0.8-1.6c-1-0.3-1.8,0.2-2.7-0.1c0.1-2,0.5-4,0-6.3 c-0.9,0-1.8-0.1-2.6-0.3c-0.3-0.3,0.1-0.8,0-1.4c-3.3-0.6-9.4-0.1-13.5-0.4c0.3-1.4,0-1.9-0.5-3c-3.5-0.1-7.3,0.2-11,1 c-1.2,0.2-2.6,0.4-3.4,1.2c0.4,1,2.4-0.1,3.1,0.4c0,0.3,0,0.5,0,0.8c-1.2,0.3-2.9-0.8-3.5,0.4c-0.5,0.1-0.4-0.3-0.7-0.4 c-3.7,0.9-7.7,0.9-11.4,1.5c-0.1,1.6-0.1,2.7-0.3,3.9c4.1-0.2,9,0,12.6-0.7c0.8,1.2-0.1,3.3,0.4,5c0.7,0,0.8,0.2,1.5,0 c6.6-1.5,14.8-1.5,22-1.4c0.8,0,5.4-0.2,6.1,0.3c-0.7,1-1.7,0.5-2.3,0.4c-1.9-0.1-3.4-0.1-5-0.1c-5.5-0.1-12.2,0.1-17.7,0.7 c-1.3,0.1-2.4,0.6-3.7,0.8c-6.8,1.1-12.9,2-19.2,3.2c-0.3,0.1-1.1,0.2-1.6,0.3c-0.5,0.1-0.9,0.3-1.6,0.5c-3.9,1-9.2,2.1-13.9,3.4 c-5,1.4-11.1,2.9-16,3.9c0.5-0.7,1.7-1,2.6-1.2c3-0.9,6.4-1.6,9.9-2.4c2.2-0.5,4.4-1.3,6.7-1.8c2.6-0.5,5.2-1,7.7-1.7 c2.1-0.5,4.3-1.3,6.4-1.7c3.5-0.7,5.9-0.9,8.9-1.5c0.4-0.1,1.8-0.3,2-0.3c2.3-0.5,3.5-0.8,6.1-1c-0.1-1.1,0.3-2.9-0.1-4.4 c-2.6,0.1-4.8,0.2-7.6,0.2c-1.3,0-4,0.1-6.1,0.1c-1,0-2.3-0.1-3.1,0.7c0.1,1.2,0.4,4.3,0,5.3c-0.4,0-0.7,0.4-1,0.1 c0.4-1.9,0.2-3.6,0-5.7c-1,0.4-2.7,1-3.7,0.5c0.1,1.7,0.5,4.2,0.7,6.1c-0.4,0.1-0.4,0.7-1.1,0.5c-0.5-2,0.2-5.2-1.4-6.3 c-3.9-0.4-6.7,0.5-10.7,0.1c-0.5,0-0.3,0.6-0.8,0.5c-0.5,0.1-0.5-0.3-0.7-0.5c-3.7,0-7.9-0.5-12-0.4c-0.3,3.7,0.2,7,0.1,9.9 c0,1-0.2,2.2-0.4,3c-2.1-0.1-3.1-1.2-3.8-2.7c-0.4,0.2-0.6,0.6-1.1,0.7c-0.5-0.1-0.8-0.4-1.1-0.7c-0.5,0-0.7,0.8-1.1,0.4 c-0.1-2.5,0.5-4.5,0.1-7.3c-2.9-1-6.3,0.3-9.1,0.3c-0.3,0.3-0.1,1.1-0.1,1.6c1.6,0.8,2.1-0.5,3.4-0.3c-0.2,1.8-1.2,4.1-1,6.8 c1.4,0.4,1.7,1.6,3.4,1.5c1-1.3,3.8-2,4.6,0c-0.2,0.4-0.4,0.8-0.5,1.2c0.4,0.3,0.8,0.4,1.1,0.8c0.5-0.3,1.2-0.4,1.9-0.1 c0.5,1.3,1.9,1.6,1.5,3.8c-0.4,0.5-0.8,1.1-1.4,1.5c-0.5,0.1-0.5,0.1-1.1,0c-0.5,0.3-0.6,0.9-1,1.2c-0.9-0.2-2.1-0.7-1.8-1.6 c0.9-0.2,0.8,0.8,1.6,0.7c0.6-0.1,0.5-0.8,0.8-1.2c0.8-0.1,1.5,0.5,1.8-0.3c0-0.5-0.6,0.4-0.7-0.1c-0.1-0.9,0.5-1,0.8-1.5 c-0.6-0.5-1.3-0.8-1.5-1.8c-0.9-0.1-0.9,0.6-1.5,0.7c-0.4-0.6-1-1-1.8-1.2c0-0.8,0.6-0.9,0.7-1.6c-0.7-1.9-3.3-0.5-3.1,1 c-0.9,0.1-0.6-0.9-1.5-0.7c-0.6,0.4,0.2,1.4-0.8,1.5c-0.8-0.2,0.1-2.8-1.5-2.6c-0.5,0.9,0.8,2.1-0.5,2.3c-0.9-0.4-0.2-1.1-0.3-2 c-0.9,0.1-1.3,0.7-1.6,1.4c0.1,0.9,1.2,0.7,1.4,1.5c1.8-0.8,3.7,0.3,3,2.4c0.7,0.2,1.1-0.5,1.9-0.1c0.6,0.3,0.5,1.2,1,1.9 c0.6,1,1.8,1.6,0.5,3.1c-0.2,0.2-1.8,1.5-2.2,1.5c-1.1,0.1-1.8-1-2.4-1.8c0-0.9,0.9-0.3,1.5-0.3c0.1,0.4-0.3,0.3-0.4,0.4 c0.3,0.2,0.5,0.5,0.8,0.7c2.1,0.2,3.7-2.7,1.2-2.6c0.2-1,0.2-1.9-0.5-2.3c-1.1,0-1.1,1.1-1.9,1.5c-1.2-0.6,0.1-2.3-0.1-3.1 c-0.5-1.4-2.2-0.9-3,0.1c-0.9-0.1-0.1-1.1-1.4-0.8c-0.2-0.4,0.1-0.5-0.1-0.8c-0.5,0.1-0.9,0.3-1.4,0.5c-0.2,0.4,0,0.4,0,1.1 c-0.3,0-0.4-0.2-0.7-0.3c0,0.6-0.1,0.7-0.5,1.1c1,0.4,1.6,1.3,1.6,2.6c0.3,0.5,1.3,0.4,1.5,1.1c0.6-0.4,0.3-1.2,0.5-1.8 c0.7-0.1,0.5,0.6,0.8,0.8c0.8-0.1,0.5-1.2,1.6-1c-0.2,1.3-1.4,1.4-1.5,2.7c-0.2,0-0.3-0.2-0.5-0.1c0.1,0.5,0.6,0.6,0.8,1 c0.5,1.7-0.9,1.8-1.5,2.7c-0.1,0.1,0.2,0.5,0.1,0.7c-0.1,0.3-0.8,0.7-0.8,0.8c-0.4,1.1-0.2,3.4,0.4,4.2c-0.3,0.3-1,0.8-1.6,0.4 c-0.2-1.2-0.2-2.7-0.8-3.5c0-0.4,0.6-0.2,0.7-0.5c-0.6-0.4-1.5,0.3-1.9-0.4c-0.3-0.6,0.3-1.6,0.8-1.4c0.1,0.5-0.4,0.8-0.1,1.1 c0.4,0.2,1.3-0.2,2-0.1c0-0.5,0-0.9,0.3-1.3c0.8-1.2,2.3-1.4,1.4-2.6c-0.9-0.2-1,0.9-1.6,0.4c-0.4-0.5,0.5-0.8,0.3-1.4 c-0.4-0.9-1.3-0.7-1.9-0.8c1.5-2.7-2.2-3.4-3.4-1.8c-0.2,0.6,0,1.6-0.8,1.6c-0.7-0.2-0.4-0.9-0.3-1.5c-1.6-0.2-0.6,1.2-1.6,1.5 c-0.6-0.2-0.5-0.9-0.5-1.6c-1.3-0.8-2.5,0.7-3.4,0.5c-0.4-0.4,0.1-0.5,0.1-0.8c-1-1.5-3.5-0.6-3.7,1.1c0.4,0.7,1.3,1,0.8,1.9 c-0.6,0.2-0.5-0.4-0.8-0.5c-0.5-0.1-0.6,0.9-1,0.5c-0.6-0.2-0.2-0.7-0.7-1.1c-1.3-0.3-3-0.1-3.7,0.7c0.2,0.6,0.4,0.9,0.1,1.5 c-0.5,0.3-0.8,0.2-1.2-0.1c-0.4,0.2-0.7,0.5-0.8,1c-0.2,0.5,0.6,0.1,0.5,0.4c0.2,0.7-0.5,0.5-0.5,1c0.9-0.1,2.1-0.9,3.8-0.7 c1,0.8,4.7,1.4,2.9,3.3c0-0.6-0.5-1.4-1.1-1.8c-0.8-0.1-1.2,0.1-1.8,0.3c-0.2-0.2-0.1-0.6-0.1-1c-1.9-0.6-2.7,0.5-3.9,1.1 c-0.2-0.5-0.4-0.9-0.7-1.4c-2.4-0.9-2.8,1.2-3.8,2.2c-0.6-0.5,0.2-1.1-0.1-1.8c-1.6,0-2.4,1.5-2.4,2.6c0.2,0.4,0.5-0.7,0.8-0.3 c-0.5,0.8,0.1,1,0.3,1.8c1-0.1,1.5,0.2,2,0.5c0.1,0.4,0.3,1.3,0,1.6c-0.8,0.1-0.4-1-0.8-1.4c-0.7-0.1-1.2,0.1-1.8,0.1 c0.1-1.7-1.9-1.5-2.6-1.1c-1,0-0.9-1-2-0.8c-0.4,0.2,0,0.7-0.4,1.1 M198,142.5c-1.5-0.1-3.7,0-4.3-1c0.4-1.8,0.2-3.2-0.3-4.6 c-3.5,0.4-7.1,0.7-10.5,1.2c-0.2,1.1-0.4,2.5-0.1,3.7c-1.7,0.6-4.2,0.2-6.3,0.7c0.1,2.3-0.2,3.5-0.4,5.3c4.2-0.4,9.7,0.3,13.3-0.8 c1.2,0.3,3.1,0.1,4.1-0.7c1.5,0,3.1,0,4.6,0c-0.1-0.8,0.1-1.2,0-2.5L198,142.5z M164.3,147.1c0-0.7-0.1-0.7-0.1-1.2 c-2.1-0.1-3.9,0.3-5.6-0.1c-1.2-0.8-0.2-3.2-1-4.9c-4.1-0.9-8.8,0.4-12.8,0.7c-0.2,2,0.1,4,0,5.2c-0.1,0.6-0.3,0.8-0.9,1 c-0.9,0-4.6,0.7-4.5,0.7c-0.3,1.4-0.6,3.8-0.4,5.4c1.4-0.2,2.1-1,3.5-1.2c-0.4-0.9-0.4-2.3,0.8-2.3c0.6-0.1,0.5,0.7,1,0.8 c0.7,0.2,1.5-0.2,2.2-0.3c3.5-0.3,6.9-0.3,9.8-1c0-0.8,0.1-1.5,0.3-2C159.2,148,161.7,146.6,164.3,147.1z M145.9,153.2 c0-0.7,0.2-0.8,0-1.2c-0.7-0.3-1.7,0-2.3,0.1c-0.1,0.4,0.1,0.6,0.1,1C144.8,153.1,144.9,153.2,145.9,153.2z M145,153.9 c-0.7,0-1.4-0.4-2.1,0.2C143.8,154.5,143.8,154.1,145,153.9z M143.3,166.2c-0.3-0.1-0.1-0.7-0.1-1c-1.1-0.3-1.7,0.7-1.6,1.6 C142.2,166.6,142.9,166.4,143.3,166.2z M139.2,155.3c1.1-0.4,2.4-0.7,3.4-1.1c-1.1-0.4-2.7,0.3-3.8,0.6c-5,1.3-12.6,2.8-16,4.3 c1.9,0.2,3.4-0.7,4.7-1C131.4,157,135.6,156.6,139.2,155.3z M140.7,167.4c-0.2-0.4,0.2-1-0.1-1.5c-0.8-1.2-2.8,0.2-2,1.6 C139.4,167.3,140,167.6,140.7,167.4z M116.5,163c-0.7-0.5-1.6-0.2-2.3-0.1c-2.7,0.4-5.2,1.3-7.9,1.8c-5.5,1.2-11.3,1.9-16.2,3.8 c7.2-0.7,15.5-3.2,23.1-4.7C113.9,163.8,116.1,163.6,116.5,163z"></path> <path class="st1" d="M395,135.6c-0.5,0-1.1-0.1-1.8-0.1c-1,0-2.2,0-3.3-0.1c-0.6-0.1-1.1-0.1-1.7-0.2c1.2-0.3,2.2,0,3.3,0 C392.3,135.2,394.1,134.8,395,135.6z"></path> <path class="st1" d="M394.9,143.7c0.2,0-0.1,0.2-0.7,0.3c-0.6,0.1-1.6,0.1-2.2,0.1c-8.6-0.3-22.5,0.6-27.7,1.2 c-0.7,0.1-3.9,0.4-4.1,0c-0.3-0.7,1.4-0.2,2-0.3c7.1-0.4,15.5-1.3,23-1.5C388.6,143.5,393.9,143.5,394.9,143.7z"></path> <path class="st1" d="M390.6,142.1c2.4,0.1,3.4-0.2,4.4,0c0.2,0-0.6,0.1-1,0.2c-1.4,0.2-2.9,0.1-4.1,0.1c-2.3-0.1-4.4-0.6-7-0.4 c-0.4,0-0.5-0.3-0.3-0.3C384.9,141.3,387.8,141.9,390.6,142.1z"></path> <path class="st1" d="M390.9,147.5c-0.1,0.3-1.2-0.1-1.9-0.1c-4-0.4-10.7,0.5-12.4-0.1c-0.2-0.1-0.1-0.3,0.1-0.3 c0.2,0,1.1,0.2,1.7,0.2c3.1-0.1,6.7-0.2,9.9-0.2C389.1,147,391,147.1,390.9,147.5z"></path> <path class="st1" d="M385.2,135.2c1.1,0,1.6-0.2,2.7-0.2c-1.1,0.8-4.5,0.2-5.7,0.4c-0.5,0.1-1.1,0.2-1.8,0.2 C381.2,134.9,384.4,135.3,385.2,135.2z"></path> <path class="st1" d="M382.2,141.7c0.4,0.2-1,0.2-1.8,0.1c-1.2,0-3,0-3.9,0c-0.5,0-2,0.3-1.5-0.2 C375.2,141.4,381.1,141.3,382.2,141.7z"></path> <path class="st1" d="M380.4,139.2c-1.2,0.7-1.4,0.2-2.2,0c-1.9-0.4-4.2-0.2-6.4-0.1c-6,0.2-12.4,0.3-18.6,0.7 c-1.4,0.1-4.4,0.2-4.5-0.3c-0.1-0.7,1.5-0.2,2-0.1c0.2,0,0.6,0,0.8,0c4.8,0,11.8-0.5,17.7-0.7C373,138.6,377.2,138.5,380.4,139.2z"></path> <path class="st1" d="M374.1,135.4c1.8,0.1,3.9-0.3,6.1-0.1C378.6,135.6,375.3,136.1,374.1,135.4z"></path> <path class="st1" d="M370.7,141.7c0.4,0,3.7-0.3,4.1,0c0.2,0.2-2.7,0.3-3.4,0.3c-4.1,0.2-7.4,0.3-11.8,0.4c-0.3,0-3.4,0-4.8,0.2 c-3.8,0.3-3.9,0.5-8.7,0.7c-1,0-2.2,0.2-3.4,0.3c-0.7,0.1-2.2,0.2-2.3-0.3c-0.1-0.4,1.5-0.4,2-0.4c0.7,0,1.5,0,2.2,0 c3.9,0,7.7-0.7,11.7-0.8C360.6,141.8,366.4,141.6,370.7,141.7z"></path> <path class="st1" d="M369.8,135.7c1.3-0.1,2.9-0.2,3.8,0c0.2,0.1-0.4,0.1-0.6,0.2c-4.8,0.2-7.9,0.4-13.2,0.7c-0.3,0-0.9,0.1-1,0.1 c-0.4-0.1,1.3-0.5,2-0.5C363.6,135.9,367,135.8,369.8,135.7z"></path> <path class="st1" d="M355.2,136.3c1,0,2.7-0.2,3.5,0c0.3,0.1-0.6,0.2-1,0.3c-1.3,0.1-2.6,0.1-3.9,0.1c-4.8,0.3-9.1,0.9-15,1.2 c-0.7,0-3.8,0.1-4.3,0.1c-1.5-0.1-2.1-0.7-1-0.6C337,138,349.6,136.6,355.2,136.3z"></path> <path class="st1" d="M268.2,150c-0.1-2.5,1.8-6.1,2.3-8.3c1.2,0.3,2.3,0.4,3,0.3c0.3-0.9,0.6-2.5,1.1-4.1c0.4,0.1,4.4-1.3,4.5-1.3 c0.4,0,1.5-0.4,2.1-0.5c2.3-0.4,4.1-0.1,7.5-0.2c1.9-0.1,3.6-0.3,5.4-0.4c0.3,0,1.6,0,2.6-0.2c0.4,0,1.3-0.1,1.4-0.1 c0.6-0.1,0.6-0.1,1-0.2c0.2,0,0.7,0,0.9,0c1.2-0.2,1.6,0,2.6,0c0,0.7-0.1,1.8-0.2,2.4c1.6,0.1,4.8,0,5,0c0.2,0,3.9,0,5.7-0.5 c-0.3,1.6-0.5,3.5-0.4,5.6c0.1,2.7,0.8,4.9,0.8,7.6c1.3-0.3,1.5-0.4,2.8-0.4c0.5,0,2.2-0.3,2.7-0.3c1.7-0.1,1.2-0.1,2.6-0.1 c0.5,0,1.5-0.1,1.8-0.1c1.4,0,1.2,0,2.4,0c1.8-0.1,3.6,0,3.6,0s1.4-2.4,2.3-3.4c0.7-0.8,0.8-1.3,1.7-1.5c1.2,1,0.9,2.9,1.7,4 c0.7,1,3.2,0.7,4,2.4l-1.4,0.3c-4.4,0.1-9.1,0.2-13.6,0.5c-3.8,0.3-7.4,0.5-11.3,0.8c-4.6,0.4-9.3,0.3-13.5,1.4 c-4.5-0.3-11.3,1.1-16.2,1.2c-3.1,1.2-9.4-0.1-13.1,0.5c-0.1-0.6,0.2-0.8,0.4-1.1c-6.9,0-13.1-0.3-20.5-0.5c-0.6,0-1.8,0.3-1.9-0.7 c0.4-0.7,1.1,0,1.5,0c9.1,0.7,16.1,0.4,24.6,0.5c0.6-0.1,0.5,0.4,0.8,0.5c2.3-0.1,3.9,0.5,6.3,0.3c0.3,0.1,0.2-0.3,0.4-0.3 c5.4-0.2,10.4-0.9,16.2-1.4c1.7-0.1,3.3-0.6,4.9-0.5c0.2,0,0.5,0,2-0.1c2.9-0.1,5.9-0.6,9.8-0.7c2.1,0,4.2,0,6.2-0.2 c1.5-0.1,2.9-0.6,4.5-0.5c3.4,0.1,8.3-0.6,12-0.4c-0.5-0.7-2.4-0.8-3.2-1.2c0-1.2-0.7-2.4-0.9-3.7c-1.2,1.2-2.6,2.8-3.6,4.5 c-5.8-0.6-11.7,0.2-16.7,1c-0.6-1-0.3-2.4-0.4-3.8c-0.1-1.2-0.5-2.5-0.5-3.7c-0.1-2,0-3.6,0-5.3c-3.3,0.2-7,0.1-10.5,0.3 c0-0.7,0.2-1.5,0.2-2.4c-5.3,0.3-12.7,1-18.6,1.5c-2.4,0.2-2.4,0.2-7.6,1.4c0,0-1,3.2-1.5,4.5c-0.5,0-0.7-0.1-1.4-0.1 c-0.3,1.7-1.2,7-1.2,7s-1.8,0.2-2.1,0.1H268.2z"></path> <path class="st1" d="M292.6,172.2c-0.6,0.6-1.1,0-1.9-0.1c-1.6-0.2-4.5-0.1-7.1,0c-1.6,0.1-4.8,0.6-5.2-0.4c0-0.1,0.1-0.1,0.1-0.1 c0.1,0,0.1-0.1,0.3-0.1c3.5,0.2,7.8,0.3,11.1,0.3C290.8,171.7,292.3,171,292.6,172.2z"></path> <path class="st1" d="M296.7,100.6c-0.3,0.6-0.9,0.1-1.2,0c-1.5-0.3-3.3-0.6-4.9-1c-3.3-0.7-6.5-2-9.6-3c-2.8-0.9-4.3-1.7-6.7-2.8 c-1.6-0.7-3.2-1.5-4.6-2.1c-0.6-0.3-1.5-0.6-2.1-0.9c-0.9-0.4-1.4-0.7-2.2-1.2c-2-1.1-4.2-2.1-5.5-2.9c-0.3-0.2-0.6-0.6-0.8-0.9 c-1.1-1.3-3.3-1.2-4.8-1.9c-0.4-0.2,0-0.9,0.3-0.8c2,0.6,3.9,1.2,5.3,2.5c0.1,0.1,0.4,0.6,1.1,1.1c1.9,1.4,4.9,2.3,6.8,3.3 c3.6,1.8,6.9,2.9,10.3,4.5c3.6,1.7,7.6,2.9,11.6,3.9c1.1,0.3,2.3,0.8,3.5,1C294.5,99.8,296,99.3,296.7,100.6z"></path> <path class="st1" d="M293.5,150.2c0.2,0.8-0.6,0.7-0.7,1.2c-0.7,0.1-0.5-0.7-1.2-0.5c-8.2,0.3-16.9,0.7-23.8,0.3 c-4.5-0.3-9.2-0.3-13.7-0.4c-2.2-0.1-4.7,0.7-6.8-0.4c0-0.3,0.2-0.4,0.4-0.5c10.5,0.1,21.5,1.4,32.2,0.7 C283.7,150.2,289.5,150.5,293.5,150.2z"></path> <path class="st1" d="M307.2,165.7c-0.6,1.5-1.7,0.3-2.7,0.1c-2.4-0.4-5.3-0.2-8-0.2c-7.6,0.1-16.7,0.6-24.4,0.7 c-1.3,0-2.8,0.1-3.8-0.6c0.8-1,2.3-0.1,3.5-0.1c4.2,0.1,11.1-0.3,16.7-0.4C294.7,165.1,301.4,165,307.2,165.7z"></path> <path class="st1" d="M277.9,170.8C277.9,170.8,277.9,170.8,277.9,170.8c-0.1,0-0.1,0-0.1,0C277.8,170.8,277.9,170.8,277.9,170.8z"></path> <path class="st1" d="M298.2,167.7c0.3,0.3,0.2,0.1,0.6,0.3c-3.8,0.2-8.4,0.7-12.1,0.7c-0.3,0-0.4-0.3-0.4-0.3 c-3.8,0.1-7.9,0.7-12.8,1c-1,0-2.2,0.2-3.4,0.3c-0.7,0.1-1.7,0.3-2.2-0.3c0.4-0.8,1.4-0.4,2-0.4c0.7,0,1.5,0,2.2,0 C280.5,168.8,288,167.8,298.2,167.7z"></path> <path class="st1" d="M218.2,115.3c1.5-0.1,3.8-1,5.4-1.8c1.9-0.9,5.5-2.6,8-2.9c1.4-0.1,2.7,0.6,1.9,2c-0.7,1.3-3.2,2.5-4.8,3.4 c-1.9,1.1-3.6,2.2-5.2,3c0.7,0.2,1.5-0.5,2.3-0.5c0.1-0.3-0.6,0.1-0.4-0.4c1.5-0.5,3.1-0.4,3.5,0.7c0.3,0.8-1.2,2.9-2.6,2.9 c-1.6,0-1.3-1-0.6-1.9c-1.9,0.5-4.3,1.4-6.2,2.3c-1.3,0.6-2.5,0.7-3.3,0.3c-0.5-0.3-0.6-1-0.1-1.5c2.9-2.8,7.9-4.4,11.4-6.9 c-4.4,1.3-9.5,3.8-13.6,6c-1.9,1-4.8,3-6.1,3c-1.1,0-1.7-0.8-1.8-1.8c3.2-3,7.3-4.8,11-7.2c4.9-3.2,10-6.3,15.2-9.1 c-1-0.4-5.4,2.1-5.6,2c-0.6-0.3,4.4-2.4,5-2.6c0.3-0.1,0.2-0.1,0.7,0c0.8,0.1,1.4-0.5,2.1-0.9c1.7-0.8,4.6-2.3,6.7-3.5 c0.1-0.2-0.1-0.4,0.1-0.7c0.1-0.1,2.3-1.2,2.7-1.2c0.5-0.1,1.1,0.3,1.4,0.7c0.8,1.2-2.2,2.7-3.1,3.1 C234.6,105.7,224.9,111.1,218.2,115.3z"></path> <path class="st2" d="M245.5,85.3c-3.6,2.8-8.4,5.7-12.9,8.2c1.7-1.6,4.1-2.8,6.3-4.2C241,87.8,243.2,86.3,245.5,85.3z"></path> <path class="st1" d="M234.5,151.1c0.1,0.6-0.2,0.7-0.3,1.1c-2-1.1-4.1,0.5-5.8-0.1c-0.6-0.1-1,0.6-1.5,0.7c-0.3,0-0.9-0.4-1.2-0.4 c-0.3,0-0.7,0.4-1.2,0.4c-0.2,0-0.6-0.2-0.8-0.1c-1.1,0.2-1.8,1.2-2.4,1.2c-1,0-0.6-0.7-1.9-0.4c-0.2,0-0.6,0-0.7,0 c-0.5,0.2-0.8,0.7-1.2,0.8c-0.1,0.1-0.6-0.2-0.8-0.1c-0.9,0.1-1,1.1-2,0.4c-0.7-0.1-0.6,0.5-1.1,0.7c-1.8-0.8-3.7,1.5-5.8,0.5 c-1,0.1-1.4,1.2-2.4,0.8c-0.7,0.8-1.9,1.1-3.1,1.4c-0.4-0.2-0.4-0.5-0.5-0.8c-1.1,0.1-0.8,2.2-2,1.8c-0.5-0.6,0.5-0.6,0.3-1.4 c-1.2,0.1-2.1,0.4-3.1,0.7c0,0.5,0.9,0.2,0.8,0.8c0.1,0.6-0.3,0.6-0.3,1.1c-0.9-0.4-1.2,0.7-2.4,0.7c0.3-0.9,1.7-1,1.2-2.3 c-3.2,0.9-6.9,2.1-9.6,3c-2.8,0.8-5.3,2.5-8,3.4c-1.6,0.5-3,1-4.5,1.8c-6.4,3.5-12.7,6.7-18.8,10.5c-1.2,0.8-0.5,0.4-1.7,1.2 c-3.3,2.1-7.2,4.5-9.6,6.5c0.6-1.4,1.3-2.3,5.3-4.6c1.1-0.6,1.8-1.1,2.9-1.8c1-0.6,1.9-1.3,2.9-1.9c5.7-3.6,11.9-6.8,18.2-9.9 c6.3-3.2,13.1-5.9,20.1-7.6c6.9-2.8,17.3-4.1,25.4-6.5C223.3,152.1,230,150.7,234.5,151.1z"></path> <path class="st1" d="M207.9,87.4c-0.1,0.4,0.7,0.5,0.3,0.8c-3.5,2.2-11.1,1.6-14.5,0.1c0-0.7,0.8-0.2,1.1-0.1 c3.4,0.7,8.7,1.6,12.4,0c-0.2-0.2-0.5-0.2-0.7-0.4c0.5-1,2-0.9,2.7-1.6c-1-1.9-2.8-3-4.6-4.1c0.4-1.4,0.4-3.1,1.8-3 c0.2,0.9-0.7,1.7-1,2.6C206.7,82.9,212.8,86.3,207.9,87.4z"></path> <path class="st1" d="M210.1,153.8c-0.7,0.3-1.9-0.4-2.6-0.1C207.9,152.7,209.7,153.2,210.1,153.8z"></path> <path class="st1" d="M201.9,76.4c0.2,0.4,0,0.6,0,1.1c-1-0.7-2.2-1.1-3.5-0.5c-0.7,0.6-0.4,2.3-2,2c-0.5-2.8-2.6-4-5-4.9 c0-1-0.6-1.7,0-2.7c-0.3-0.6-1-0.7-1.9-0.7c0.3-1.7,0.3-4.4-1.6-4.6c-2.6,1.3-3.5-0.8-4.2-2.4c-0.8,1.1-3.3,2.6-3.5,0.5 c-0.2-1.5,1.8-1.7,1.9-3.3c-0.3-1.7-2.3-2-4.1-1.5c-0.3,0.5-0.5,1-0.3,1.6c-0.5-0.1-0.6,0.2-1.1,0.1c0-2.2-4.1-1-3.4-3.9 c0.3-1.1,1.9-1.1,2.4-2.2c-0.2-1.5,0.3-3.6-1.1-3.9c-1.8-0.5-3.5,2.1-5.3,2.2c-0.8-0.2-1.3-0.7-1.6-1.4c0.3-1.8,1.5-5-0.8-5.6 c0.2-0.4,0.5-0.7,1-0.8c-0.2-1.9-1.3-3.5-3.3-4.1c-0.7,0.1-0.4,1.3-1.6,1c1.1-3-3.6-5.4-7.1-4.6c-1.5,0.3-3.9,2.3-3.5,4.2 c0.1,0.7,0.7,0.7,0.8,1.6c-0.3,0.2-0.5,0-0.8,0.3c-2.2-3.8-7.1,0.3-7.1,3.7c0,1.3,0.7,2,1.2,3.3c1.4,1.1,2.7,2.3,3.3,4.2 c-0.2,0.1-0.5,0.2-0.7,0.4c-0.7-0.5-1.4-1-2.6-1c-0.4,0.2-0.4,1.3-1.1,1.1c-0.5,0.1-0.4-0.5-0.4-1c-2-1.4-5.9-1.4-6.4,1.1 c-0.2,0-0.2,0-0.3,0.1c-0.6,0.1-0.6-0.5-1.2-0.5c-0.6,0.3-1.4,1.1-1,2c0.9,0.5,2.3,0.1,2.9,0.4c0,1.3-1.3,1.2-1.4,2.3 c-0.1,2.6,3.9,1.3,6.1,2.3c1.5,0.6,0.9,2,2.2,2.2c0,0.4,0.2,0.7,0.1,1.2c0.2,0.2,0.6-0.1,1.1,0.1c0,0.6,0.4,0.8,0.4,1.4 c-1.9,3.4-5.7-1.2-8.6-0.1c-0.1,0.7,1,0.7,0.5,1.4c-1,0.4-3,0-3.8-0.4c0.4-1.9,0.3-4.8-2.4-4.6c-0.7,0.3-0.5,1-1.4,0.8 c-0.6-0.5-0.7-1.3-1.5-1.6c-0.7,0.1-0.8,0.6-1.8,0.4c-0.5-0.4-0.2-1.5-0.8-1.8c-0.9-0.1-1.8,0.9-3,1c-0.3-1.5-0.5-3-1.5-3.8 c-1.2-0.2-1.6,0.5-2.3,0.8c-0.4,1.5,0.7,2.3,1.5,3.1c-0.4,0.4-0.7,0.6-1.5,0.4c-0.5,0.2-0.6,1-0.5,1.8c0.2,0.5,1,0.6,1.8,0.5 c0.5,1.1,1.3,2.4,0.1,3.3c0.3,0.5,1.3,0.2,1.5,0.4c0.3,1.1-0.4,2.1-1.2,2.6c-1.3-0.7-2.6-1.3-4.1-0.4c-0.5-1.7-1.5-4-3.3-3.8 c-1.2,0.1-2.1,1.4-2.7,2.5c0.1,0.7,0.6,0.9,0.7,1.6c-1.5,0.1-2.4,0.9-3.3,1.2c-0.3-0.8-1.9-1.8-2.4-0.7c-0.1,0.7,0.4,0.7,0.4,1.2 c-0.8,0.9-1.6,0-1.6-1.1c-0.5-0.9-1.5-0.7-2.6-1c-0.6,0.2-1.1,0.6-1.5,1.1c0,0.9,0.9,1,1.4,1.5c-0.3,1.2-2.1,0.5-2.7,1.6 c0.7,2,3.1,2.2,3.5,4.3c-0.9,0.4-2,1.6-3,1.5c-0.9-0.1-1.1-1.1-2-1.4c-0.9,0.4-0.9,1.6-1.5,2.3c0.1,0.4,0.5-0.2,0.7,0.1 c-0.2,0.4-0.7,0.6-1.4,0.5c0-1.4,1-2.8,1.8-3.8c1.1,0.2,1.6,1.4,2.6,1.4c0.8,0,1.2-0.8,2.1-0.9c-0.6-0.6-1.1-0.8-1.8-1.6 c-0.8-0.8-2-1.3-2-2.3c0-1,1.3-1.2,2.2-1.8c-0.1-0.6-0.7-0.7-0.8-1.4c0.6-2.2,3.8-2.4,5.6-1.1c0.5-0.2,0.6-0.6,1.1-0.8 c1.3,0.1,2.3,1.3,3.9,0.4c-1-1.8,2.6-4.7,4.2-4.5c1.5,0.2,2,2.4,3,3.4c1.1,0,2.3,0.1,3.4,0.7c0.2-0.2,0.5-0.4,0.4-0.8 c-0.5-0.3-1.3-0.3-1.5-0.8c-0.2-0.9,0.4-1.2,0.7-1.6c-0.1-0.5-0.4-0.8-0.5-1.2c-2.5,0.2-2.7-3.2-0.8-3.8c-0.3-1-0.8-1.7-0.7-2.7 c0.8-1,2.3-1.8,3.9-1.5c0.9,0.9,0.9,2.5,1.8,3.4c1-0.1,1.2-1.1,2.6-0.8c0.3,0.5,0.6,1.1,0.7,1.8c1.4-0.5,2.5-0.1,3.1,1 c2.6-1.3,5.4,1.5,4.4,3.9c0,0.7,1.1,0.7,1.2,0.8c0.5,0-0.2-0.8,0.3-1.1c0.6-0.4,1.6-0.5,2.3-0.8c1.6,0.3,5.9,3.3,6.1,0.8 c-0.5-0.4-1.1,0.4-1.6,0c-0.1-0.7,0.4-0.8,0.4-1.4c-0.4-1-1.3-1.4-1.8-2.3c-3.5-0.2-8.7-1.5-5.8-4.8c-0.7-0.3-1.8-0.1-2.3-0.5 c-0.7-1.5,0.6-2.8,1.5-3.5c0.5,0,0.7,0.3,1.2,0.3c1-0.3,0.9-1,1.5-1.4c2.4-1.2,5.9,1.1,8.7,0.8c-0.8-2-3.5-3.2-3.8-5.8 c-0.1-0.9,0.1-2.6,0.7-3.5c0.2-0.3,1.1-0.7,1.8-1.4c1.2-1,2.1-2.5,4.4-1.4c0.4-1.5,1.4-3.3,3.3-4.3c0.9-0.5,1.8-0.5,2.9-0.4 c2.2,0.1,4.2,0.8,5.8,2c0.2,0.5,0.3,1.1,0.5,1.5c0.3-0.1,0.6-0.2,1.1-0.1c1.8,1.3,4.1,2.8,3.5,5.7c1.1,1,0.4,3.5,0.1,5.2 c0.1,0.4,0.4,0.6,0.5,1c1.5,0,2.3-0.7,3-1.5c1.5-0.6,3.4-0.7,4.2,0.5c-0.2,1.5,0.6,3,0,4.1c-0.5,0.9-1.7,0.8-2.2,1.8 c-0.2,1.8,1.8,1.3,2.6,2.2c0.5-0.2,0.9-0.7,1.4-1c2,0.1,4.6-0.1,4.9,1.8c0.3,1.6-2,2.1-1.6,3.9c1.2-0.1,1.5-1.2,2.4-1.6 c1.3,0.4,1.2,2.2,2.2,3c0.7,0.3,1.4-0.2,2-0.4c2,0.4,2.7,2.1,2.6,4.6c0.6,0.4,1.4,0.6,1.9,1.1c-0.1,0.5-0.3,0.9-0.4,1.4 c0.2,1.2,0.3,1.6,1.4,2c2.4,1,2.7,2,3.8,3.3C197.6,75.8,200.1,75.8,201.9,76.4z"></path> <path class="st1" d="M205.3,154.7c-1.4-0.3-2.2,0-3.5-0.3C202.3,153.4,205,153.8,205.3,154.7z"></path> <path class="st1" d="M200.8,155.3c-1.2-0.2-2.8,0-3.8-0.4C197.8,154.3,200.3,154.5,200.8,155.3z"></path> <path class="st1" d="M199,158.4c0,0.5-0.1,0.9-0.4,1.1C197.2,159.5,198,157.3,199,158.4z"></path> <path class="st1" d="M182.1,86.9c3.6,0.1,7.7,1.3,11.4,1.1c-0.4,0.9-1.6,0.3-2.4,0.3c-0.9,0-1.8,0.2-2.7,0 c-5.4-1-13.2-1.5-17.4-2.6c-10.4,0-20.5-0.2-29.8,0.5c-1.5,0.1-2.8,0.5-4.4,0.7c-2.7,0.4-6.2,0.9-7.1-1.4c-3-1.1-5.7-0.9-8.8-0.8 c-5.7,0.2-12.3-0.4-17.4-0.5c-1.3,0-3,0.4-3.9-0.5c6.8,0.1,13.7,0.3,19.7,0.4c2.4,0,4.8-0.3,6.9,0c1.3,0.2,3,0.5,4.1,1.1 c0.7,0.4,0.8,1.1,1.5,1.4c1.9,0.8,6.8-0.6,9.1-0.8c1.8-0.2,3.4-0.1,5-0.1c7.1,0,16.7-1,23.5-0.3C174.3,85.7,178.8,86.5,182.1,86.9z "></path> <path class="st1" d="M197.1,156.4c-0.9-0.4-2.2-0.5-3.4-0.3C194,154.9,197.1,155.4,197.1,156.4z"></path> <path class="st1" d="M192.9,159.5c0.9-0.1,0.7,0.9,1.6,0.8c-0.2,1-1.4,1-1.9,1.8c-2.3,0.6-4,2.5-6.4,2.6c-0.7,0.3-0.9,1.1-1.4,1.6 c-1-0.6-0.7,0.5-1.9,0.4c-0.5,0.5-0.5,1.6-1.5,1.6c-0.1-0.7,0.6-0.8,0.5-1.5c-0.1-0.7-1-0.5-1.8-0.5c-0.2-0.4-0.3-0.6-0.1-1 c1.7,0,2.5-0.1,3.4,0.3c0.2-0.3-0.5-1.3,0.3-1.5c0.6,0.1,0.7,0.6,0.7,1.2c1-0.5,1.7-1.4,2.3-2.3c0-0.5-0.7-0.8-0.4-1.2 c1.3-0.1,1.4,1.2,0.8,1.9c0.2,0.2,0.8-0.3,1.4-0.3c0.3-0.4-0.1-0.8,0.1-1.1c1.4,0.4,2.4-0.4,3.1-1.4c0.4-0.1,0.3,0.4,0.5,0.4 C193.3,161,192.4,160.1,192.9,159.5z"></path> <path class="st1" d="M193.3,157c-1,0.4-3.3,0-4.2,0.4C189.7,156.1,192.3,156.8,193.3,157z"></path> <path class="st1" d="M189.9,159.1c-1.6-0.6-3.8-1.2-5.6-0.5C184.6,156.8,189.4,157.8,189.9,159.1z"></path> <path class="st1" d="M184.9,159.8c-1.4,0.5-3.3-0.8-5.2-0.3C180.6,158,183.5,159.6,184.9,159.8z"></path> <path class="st1" d="M180.1,135.4c0.4-0.1,0.3,0.3,0.4,0.4c-0.4,1.1-1.9,0.5-2.9,0.5c-4.1,0.2-7.8,0.1-12.6,0.3 c-4.4,0.2-9.1,0.6-13.2,0.8c-3.4,0.2-6.7-0.5-9-0.3c-0.8,0.1-1.9,0.6-2.6-0.1c0.6-0.8,2.4-0.5,3.5-0.5c1.9,0,3.8,0.1,5.4,0.3 c3.6,0.3,8.1-0.3,12.4-0.5c3.9-0.2,7.8-0.3,11.1-0.4C175.4,135.7,178.1,136.1,180.1,135.4z"></path> <path class="st1" d="M178.2,160.3c1.3,0.2,2.3,0.8,2.7,1.4c-1.6-0.4-3.5-1.3-5.7-0.7C175.6,160,177.2,160.2,178.2,160.3z"></path> <path class="st1" d="M179.4,167.8c-0.3,1-0.9,1.7-1.9,2c0.3-0.6,0.8-1,1.1-1.6c-1.5,0.4-1.6,2.1-3.1,2.5c-0.6,0.1-1.3-0.2-2,0 c-1.6,0.4-1.7,2.6-3.4,2.9c0.2-0.8,1.1-0.9,1.1-1.9c-0.3-0.6-1.5-0.3-1.4-1.2c0.9-0.5,1.5,0.3,2.2,0.5c0.8-0.1,0-1.7,1-1.6 c0.2,0.2,0.5,0.3,0.4,0.8c1.7,0.1,2.9-0.2,3.1-1.5c0.8,0.3,1.1-0.4,1.4-1.1c-0.4-0.2-1.4-0.5-1.6,0c-0.2-0.1-0.3-0.4-0.5-0.4 C176.5,165.6,178.8,167,179.4,167.8z"></path> <path class="st1" d="M167.9,110.8c2.6,0.2,5.2,0.4,7.1,0.7c0.4,0.1,0.1,0.3,0,0.3c-11.7-0.8-20.5-1.4-32-0.6 c-0.1,0.1,0.4,1.3,0,1.8c-4.2,0.7-9.3,2.1-14.1,3.5c-4.1,1.2-8.3,2.2-11.6,3.8c-0.8,0.4-1.4,1.2-2.7,0.8c-0.4-0.5-0.2-1.2-0.3-1.8 c8.2-3.1,17.3-5.3,25.8-8c-1.5-0.2-3.1-0.1-4.5,0.1c-7.3,1-15.1,2.8-21.9,5.3c-4.9,1.8-10.3,3.8-15.5,5.3c-2.3,0.7-4.7,1.5-6.5,1.5 c-0.6,0-1.3,0.7-1.6,0.5c0.1-0.4,0.4-0.6,0.4-0.7c0.7-0.3,1.5-0.4,2.2-0.7c0.2-0.7-0.1-1.2,0.1-1.6c0.4-0.8,4.9-2.4,7.1-4.2 c-2.7,0-5.2,0.5-8,0.8c-0.2,0.3,0.5,1.1,0,1.6c-1,0.8-1.9,1-3.3,1.9c-0.7,0.5-3.8,4-3.8,1c0-1.9,3.5-2.9,4.6-3.9 c-1.4-0.7-4.5,0.5-5.7,0c0.4-0.8,2-0.7,3.1-0.8c1-0.1,2.7-0.3,3.7-0.3c3.7-0.2,9.6-0.9,14.4-1.2c2.3-0.1,4.2-0.4,5.1,0.3 c-1.4,0.3-6.4,0.6-8.3,0.6c-0.1,0.5,0.1,0.9,0,1.5c-1.9,1.4-4.3,2.3-6.3,3.7c6.1-1.2,11.3-3.7,16.7-5.4c-0.3-0.5-1.4,0.1-1.8-0.4 c0.9-0.3,1.8-0.5,2.6,0.2c5.2-1.7,11.2-3.4,16.9-4.4c3.2-0.8,7.1-1.5,10.6-1.6C149.5,110.2,159.2,110.2,167.9,110.8z"></path> <path class="st1" d="M172.1,161.7c1.4-0.1,3.5-0.5,4.2,1c-1.4-0.8-4.9-0.6-6.8-0.4C169.8,161.4,171.5,161.7,172.1,161.7z"></path> <path class="st1" d="M169.1,163c1.3,0.2,2.5,0.9,2.6,1.5c-2.1-1.1-4.4-1.7-6.4-0.8C165.4,162.6,167.7,162.8,169.1,163z"></path> <path class="st1" d="M169.1,173.6c-0.2,0.7-1,0.8-1.6,1.1c0.1,1.1-1,1.8-1.8,1.5c0-0.5,0.7-0.3,0.8-0.7c0-0.7-0.8-0.5-1-1 c0.2-1,1.5-0.1,2.2-0.7C166.8,172.6,168.9,172.4,169.1,173.6z"></path> <path class="st1" d="M162.7,173.9c1.7-0.2,2.7,2.4,0.7,2.6c0.1-0.4,0.3-0.7,0.5-1c-0.3-0.5-1-0.6-1.4-1.1 C162.6,174.2,162.7,174.2,162.7,173.9z"></path> <path class="st1" d="M161.9,167.9c0.3-1.1,2.9-0.8,3,0.3C164,167.9,162.9,167.6,161.9,167.9z"></path> <path class="st1" d="M160.8,170.4c-0.2,0.3-1.7-0.1-3,0c-0.2,0,0-0.2-0.1-0.3C158.6,169.5,160,169.9,160.8,170.4z"></path> <path class="st2" d="M159.4,178.8c0.4,0.2-0.2,0.6-0.3,0.7C158.8,179.3,159.3,178.9,159.4,178.8z"></path> <path class="st1" d="M152.4,175.3c-0.9-0.1-1.5,0-2.3,0.1c-0.2-0.4,0-0.4,0.3-0.6C151.1,174.5,152.2,174.5,152.4,175.3z"></path> <path class="st2" d="M143.1,165.2c0.1,0.3-0.2,0.9,0.1,1c-0.3,0.3-1.1,0.4-1.8,0.7C141.5,166,142,164.9,143.1,165.2z"></path> <path class="st2" d="M140.6,165.9c0.3,0.5-0.1,1.1,0.1,1.5c-0.7,0.3-1.3-0.1-2.2,0.1C137.8,166.1,139.7,164.7,140.6,165.9z"></path> <path class="st1" d="M99.1,156.8c0.2,1.2,0.1,2.3,0.2,3.6c-0.3,0.1-0.7,0.1-1,0.1c-0.1-0.9,0.1-2.8,0-3.6 C98.6,156.9,98.9,156.8,99.1,156.8z"></path> <path class="st1" d="M101.8,156.4c0.2,1.2,0.1,2.3,0.2,3.6c-0.3,0.1-0.7,0.1-1,0.1c-0.1-0.9,0.1-2.8,0-3.6 C101.3,156.5,101.6,156.5,101.8,156.4z"></path> <path class="st1" d="M104.5,156.1c0.2,1.2,0.1,2.3,0.2,3.6c-0.3,0.1-0.7,0.1-1,0.1c-0.1-0.9,0.1-2.8,0-3.6 C103.9,156.1,104.2,156.1,104.5,156.1z"></path> <path class="st1" d="M107.2,155.7c0.2,1.2,0.1,2.3,0.2,3.6c-0.3,0.1-0.7,0.1-1,0.1c-0.1-0.9,0.1-2.8,0-3.6 C106.6,155.8,106.9,155.7,107.2,155.7z"></path> <path class="st1" d="M109.8,155.3c0.2,1.2,0.1,2.3,0.2,3.6c-0.3,0.1-0.7,0.1-1,0.1c-0.1-0.9,0.1-2.8,0-3.6 C109.3,155.4,109.6,155.3,109.8,155.3z"></path> <path class="st1" d="M112.5,154.9c0.2,1.2,0.1,2.3,0.2,3.6c-0.3,0.1-0.7,0.1-1,0.1c-0.1-0.9,0.1-2.8,0-3.6 C112,155,112.3,154.9,112.5,154.9z"></path> <path class="st1" d="M128.4,161.3c0.2,1.2,0.1,2.3,0.2,3.6c-0.3,0.1-0.7,0.1-1,0.1c-0.1-0.9,0.1-2.8,0-3.6 C127.9,161.4,128.1,161.4,128.4,161.3z"></path> <path class="st1" d="M131.3,160.6c0.2,1.2,0.1,2.3,0.2,3.6c-0.3,0.1-0.7,0.1-1,0.1c-0.1-0.9,0.1-2.8,0-3.6 C130.8,160.7,131.1,160.6,131.3,160.6z"></path> <path class="st1" d="M134.3,159.8c0.2,1.2,0.1,2.3,0.2,3.6c-0.3,0.1-0.7,0.1-1,0.1c-0.1-0.9,0.1-2.8,0-3.6 C133.7,159.9,134,159.8,134.3,159.8z"></path> <path class="st1" d="M137.2,159c0.2,1.2,0.1,2.3,0.2,3.6c-0.3,0.1-0.7,0.1-1,0.1c-0.1-0.9,0.1-2.8,0-3.6 C136.7,159.1,137,159,137.2,159z"></path> <path class="st1" d="M140.2,158.2c0.2,1.2,0.1,2.3,0.2,3.6c-0.3,0.1-0.7,0.1-1,0.1c-0.1-0.9,0.1-2.8,0-3.6 C139.6,158.3,139.9,158.2,140.2,158.2z"></path> <path class="st1" d="M143.1,157.5c0.2,1.2,0.1,2.3,0.2,3.6c-0.3,0.1-0.7,0.1-1,0.1c-0.1-0.9,0.1-2.8,0-3.6 C142.6,157.5,142.9,157.5,143.1,157.5z"></path> <path class="st1" d="M203.3,133.1c0.2,1.2,0.1,2.3,0.2,3.6c-0.3,0.1-0.7,0.1-1,0.1c-0.1-0.9,0.1-2.8,0-3.6 C202.8,133.2,203.1,133.2,203.3,133.1z"></path> <path class="st1" d="M206.3,132.9c0.2,1.2,0.1,2.3,0.2,3.6c-0.3,0.1-0.7,0.1-1,0.1c-0.1-0.9,0.1-2.8,0-3.6 C205.8,133,206.1,132.9,206.3,132.9z"></path> <path class="st1" d="M209.2,132.6c0.2,1.2,0.1,2.3,0.2,3.6c-0.3,0.1-0.7,0.1-1,0.1c-0.1-0.9,0.1-2.8,0-3.6 C208.7,132.7,209,132.6,209.2,132.6z"></path> <path class="st1" d="M212.2,132.4c0.2,1.2,0.1,2.3,0.2,3.6c-0.3,0.1-0.7,0.1-1,0.1c-0.1-0.9,0.1-2.8,0-3.6 C211.7,132.5,211.9,132.4,212.2,132.4z"></path> <path class="st1" d="M215.1,132.1c0.2,1.2,0.1,2.3,0.2,3.6c-0.3,0.1-0.7,0.1-1,0.1c-0.1-0.9,0.1-2.8,0-3.6 C214.6,132.2,214.9,132.1,215.1,132.1z"></path> <path class="st1" d="M218.1,131.8c0.2,1.2,0.1,2.3,0.2,3.6c-0.3,0.1-0.7,0.1-1,0.1c-0.1-0.9,0.1-2.8,0-3.6 C217.5,131.9,217.8,131.9,218.1,131.8z"></path> <path class="st1" d="M231.2,133.4c0.2,1.2,0.1,2.3,0.2,3.6c-0.3,0.1-0.7,0.1-1,0.1c-0.1-0.9,0.1-2.8,0-3.6 C230.7,133.5,230.9,133.4,231.2,133.4z"></path> <path class="st1" d="M234.1,133.7c0.2,1.2,0.1,2.3,0.2,3.6c-0.3,0.1-0.7,0.1-1,0.1c-0.1-0.9,0.1-2.8,0-3.6 C233.6,133.8,233.9,133.7,234.1,133.7z"></path> <path class="st1" d="M146,156.7c0.2,1.2,0.1,2.3,0.2,3.6c-0.3,0.1-0.7,0.1-1,0.1c-0.1-0.9,0.1-2.8,0-3.6 C145.5,156.8,145.8,156.7,146,156.7z"></path> <path class="st1" d="M166.8,151.6c0.2,1.6,0.1,3.1,0.2,4.9c-0.3,0.1-0.7,0.1-1,0.2c-0.1-1.3,0.1-3.8,0-4.9 C166.2,151.7,166.5,151.6,166.8,151.6z"></path> <path class="st1" d="M169.7,151.7c0.2,1.5,0.1,2.7,0.2,4.3c-0.3,0.1-0.7,0.1-1,0.2c-0.1-1.1,0.1-3.3,0-4.3 C169.2,151.8,169.5,151.7,169.7,151.7z"></path> <path class="st1" d="M172.6,151.5c0.2,1.4,0.1,2.5,0.2,4c-0.3,0.1-0.7,0.1-1,0.2c-0.1-1,0.1-3.1,0-4 C172.1,151.6,172.4,151.6,172.6,151.5z"></path> <path class="st1" d="M175.6,151.5c0.2,1.2,0.1,2.3,0.2,3.6c-0.3,0.1-0.7,0.1-1,0.1c-0.1-0.9,0.1-2.8,0-3.6 C175.1,151.6,175.4,151.5,175.6,151.5z"></path> <path class="st1" d="M178.5,151.2c0.2,1.1,0.1,2.1,0.2,3.4c-0.3,0.1-0.7,0.1-1,0.1c-0.1-0.9,0.1-2.6,0-3.4 C178,151.3,178.3,151.2,178.5,151.2z"></path> <path class="st1" d="M181.5,150.8c0.2,1.1,0.1,2.1,0.2,3.3c-0.3,0.1-0.7,0.1-1,0.1c-0.1-0.9,0.1-2.5,0-3.3 C181,150.9,181.2,150.8,181.5,150.8z"></path> <path class="st1" d="M184.4,150.4c0.2,1.1,0.1,2,0.2,3.2c-0.3,0.1-0.7,0.1-1,0.1c-0.1-0.8,0.1-2.5,0-3.2 C183.9,150.5,184.2,150.4,184.4,150.4z"></path> <path class="st1" d="M197.1,148.4c0.2,0.9,0.1,1.7,0.2,2.7c-0.3,0.1-0.7,0.1-1,0.1c-0.1-0.7,0.1-2.1,0-2.7 C196.6,148.5,196.9,148.4,197.1,148.4z"></path> <path class="st1" d="M200.1,148.4c0.2,0.8,0.1,1.5,0.2,2.4c-0.3,0-0.7,0.1-1,0.1c-0.1-0.6,0.1-1.9,0-2.4 C199.5,148.4,199.8,148.4,200.1,148.4z"></path> <path class="st1" d="M203,148.2c0.2,0.8,0.1,1.4,0.2,2.2c-0.3,0-0.7,0.1-1,0.1c-0.1-0.6,0.1-1.7,0-2.3 C202.5,148.3,202.8,148.2,203,148.2z"></path> <path class="st1" d="M205.9,147.9c0.2,0.7,0.1,1.4,0.2,2.2c-0.3,0-0.7,0.1-1,0.1c-0.1-0.6,0.1-1.7,0-2.2 C205.4,148,205.7,147.9,205.9,147.9z"></path> <path class="st1" d="M208.9,147.7c0.2,0.7,0.1,1.4,0.2,2.1c-0.3,0-0.7,0.1-1,0.1c-0.1-0.6,0.1-1.6,0-2.1 C208.4,147.7,208.7,147.7,208.9,147.7z"></path> <path class="st1" d="M121.5,151.1c0.2,1.2,0.1,2.3,0.2,3.6c-0.3,0.1-0.7,0.1-1,0.1c-0.1-0.9,0.1-2.8,0-3.6 C121,151.2,121.3,151.1,121.5,151.1z"></path> <path class="st1" d="M123.7,150.7c0.2,1.2,0.1,2.3,0.2,3.6c-0.3,0.1-0.7,0.1-1,0.1c-0.1-0.9,0.1-2.8,0-3.6 C123.1,150.8,123.4,150.8,123.7,150.7z"></path> <path class="st1" d="M125.8,150.4c0.2,1.2,0.1,2.3,0.2,3.6c-0.3,0.1-0.7,0.1-1,0.1c-0.1-0.9,0.1-2.8,0-3.6 C125.3,150.5,125.6,150.4,125.8,150.4z"></path> <path class="st1" d="M127.9,150c0.2,1.2,0.1,2.3,0.2,3.6c-0.3,0.1-0.7,0.1-1,0.1c-0.1-0.9,0.1-2.8,0-3.6 C127.4,150.1,127.7,150,127.9,150z"></path> <path class="st1" d="M147.7,143.7c0.2,1.2,0.1,2.3,0.2,3.6c-0.3,0.1-0.7,0.1-1,0.1c-0.1-0.9,0.1-2.8,0-3.6 C147.2,143.8,147.5,143.7,147.7,143.7z"></path> <path class="st1" d="M150.5,143.3c0.2,1.2,0.1,2.3,0.2,3.6c-0.3,0.1-0.7,0.1-1,0.1c-0.1-0.9,0.1-2.8,0-3.6 C150,143.4,150.3,143.3,150.5,143.3z"></path> <path class="st1" d="M153.3,142.9c0.2,1.2,0.1,2.3,0.2,3.6c-0.3,0.1-0.7,0.1-1,0.1c-0.1-0.9,0.1-2.8,0-3.6 C152.8,143,153.1,142.9,153.3,142.9z"></path> <path class="st1" d="M156.2,142.5c0.2,1.2,0.1,2.3,0.2,3.6c-0.3,0.1-0.7,0.1-1,0.1c-0.1-0.9,0.1-2.8,0-3.6 C155.6,142.6,155.9,142.5,156.2,142.5z"></path> <path class="st1" d="M185.1,139.4c0.2,1,0.1,1.8,0.2,2.8c-0.3,0.1-0.7,0.1-1,0.1c-0.1-0.7,0.1-2.2,0-2.8 C184.6,139.5,184.9,139.4,185.1,139.4z"></path> <path class="st1" d="M187.5,139.1c0.2,1,0.1,1.8,0.2,2.8c-0.3,0.1-0.7,0.1-1,0.1c-0.1-0.7,0.1-2.2,0-2.8 C187,139.2,187.3,139.1,187.5,139.1z"></path> <path class="st1" d="M190,138.8c0.2,1,0.1,1.8,0.2,2.8c-0.3,0.1-0.7,0.1-1,0.1c-0.1-0.7,0.1-2.2,0-2.8 C189.5,138.9,189.8,138.8,190,138.8z"></path> <path class="st1" d="M192.4,138.5c0.2,1,0.1,1.8,0.2,2.8c-0.3,0.1-0.7,0.1-1,0.1c-0.1-0.7,0.1-2.2,0-2.8 C191.9,138.6,192.2,138.5,192.4,138.5z"></path> <path class="st1" d="M217.5,139.9c0.2,1,0.1,1.8,0.2,2.8c-0.3,0.1-0.7,0.1-1,0.1c-0.1-0.7,0.1-2.2,0-2.8 C217,140,217.3,139.9,217.5,139.9z"></path> <path class="st1" d="M219.9,139.6c0.2,1,0.1,1.8,0.2,2.8c-0.3,0.1-0.7,0.1-1,0.1c-0.1-0.7,0.1-2.2,0-2.8 C219.4,139.7,219.7,139.6,219.9,139.6z"></path> <path class="st1" d="M222.4,139.3c0.2,1,0.1,1.8,0.2,2.8c-0.3,0.1-0.7,0.1-1,0.1c-0.1-0.7,0.1-2.2,0-2.8 C221.9,139.4,222.1,139.3,222.4,139.3z"></path> <path class="st1" d="M224.8,139c0.2,1,0.1,1.8,0.2,2.8c-0.3,0.1-0.7,0.1-1,0.1c-0.1-0.7,0.1-2.2,0-2.8 C224.3,139.1,224.6,139,224.8,139z"></path> <path class="st1" d="M278.4,140c0.2,1,0.1,1.8,0.2,2.8c-0.3,0.1-0.7,0.1-1,0.1c-0.1-0.7,0.1-2.2,0-2.8 C277.9,140.1,278.2,140.1,278.4,140z"></path> <path class="st1" d="M281,140c0.2,1,0.1,1.8,0.2,2.8c-0.3,0.1-0.7,0.1-1,0.1c-0.1-0.7,0.1-2.2,0-2.8C280.5,140.1,280.8,140,281,140 z"></path> <path class="st1" d="M307.1,139.7c0.2,1,0.1,1.8,0.2,2.8c-0.3,0.1-0.7,0.1-1,0.1c-0.1-0.7,0.1-2.2,0-2.8 C306.6,139.8,306.9,139.7,307.1,139.7z"></path> <path class="st1" d="M309.5,140c0.2,1,0.1,1.8,0.2,2.8c-0.3,0.1-0.7,0.1-1,0.1c-0.1-0.7,0.1-2.2,0-2.8 C309,140.1,309.3,140,309.5,140z"></path> <path class="st1" d="M99.1,171.9c0.2,1.2,0.1,2.3,0.2,3.6c-0.3,0.1-0.7,0.1-1,0.1c-0.1-0.9,0.1-2.8,0-3.6 C98.6,172,98.9,171.9,99.1,171.9z"></path> <path class="st1" d="M102.1,171c0.2,1.2,0.1,2.3,0.2,3.6c-0.3,0.1-0.7,0.1-1,0.1c-0.1-0.9,0.1-2.8,0-3.6 C101.6,171.1,101.9,171,102.1,171z"></path> <path class="st1" d="M105.2,170.1c0.2,1.2,0.1,2.3,0.2,3.6c-0.3,0.1-0.7,0.1-1,0.1c-0.1-0.9,0.1-2.8,0-3.6 C104.6,170.2,104.9,170.1,105.2,170.1z"></path> <path class="st1" d="M108.2,169.2c0.2,1.2,0.1,2.3,0.2,3.6c-0.3,0.1-0.7,0.1-1,0.1c-0.1-0.9,0.1-2.8,0-3.6 C107.7,169.3,108,169.2,108.2,169.2z"></path> <path class="st1" d="M111.2,168.3c0.2,1.2,0.1,2.3,0.2,3.6c-0.3,0.1-0.7,0.1-1,0.1c-0.1-0.9,0.1-2.8,0-3.6 C110.7,168.4,111,168.3,111.2,168.3z"></path> <path class="st1" d="M114.3,167.4c0.2,1.2,0.1,2.3,0.2,3.6c-0.3,0.1-0.7,0.1-1,0.1c-0.1-0.9,0.1-2.8,0-3.6 C113.7,167.5,114,167.4,114.3,167.4z"></path> <path class="st1" d="M320.7,28.3c-1-0.5-2.3,0.6-3.3,0.5c-1.5-0.1-3.2-2.4-5.6-2.5c-2.5,0-4.9,1.8-4.9,4.4c0,0.8,0.6,1.4,0,2.3 c-2.9-2.7,0.8-7.1,4.1-7.3c2.6-0.2,4.4,1.2,6.4,2.2C318.6,27.5,319.9,27.7,320.7,28.3z"></path> <path class="st1" d="M293.5,150.2c0.2,0.8-0.6,0.7-0.7,1.2c-0.7,0.1-0.5-0.7-1.2-0.5c-8.2,0.3-16.9,0.7-23.8,0.3 c-4.5-0.3-9.2-0.3-13.7-0.4c-2.2-0.1-4.7,0.7-6.8-0.4c0-0.3,0.2-0.4,0.4-0.5c10.5,0.1,21.5,1.4,32.2,0.7 C283.7,150.2,289.5,150.5,293.5,150.2z"></path> <path class="st1" d="M311.6,161.7c-0.8,1.5-2.1,0.3-3.4,0.1c-3-0.4-6.8-0.2-10.2-0.1c-9.7,0.2-21.2,0.7-31,1 c-1.6,0-3.6,0.2-4.9-0.5c1-1,3-0.1,4.5-0.1c5.4,0,14.1-0.4,21.3-0.5C295.6,161.2,304.2,161.1,311.6,161.7z"></path> <path class="st1" d="M277.9,170.8C277.9,170.8,277.9,170.8,277.9,170.8c-0.1,0-0.1,0-0.1,0C277.8,170.8,277.9,170.8,277.9,170.8z"></path> <path class="st1" d="M264.6,135.6c0.6,0,1.4-0.3,1.6,0.3c-0.1,0.6-1.1,0.9-1.6,0.5c0-0.3,0.6,0,0.5-0.4c-7-0.3-17.1,2.3-18.8,1.9 c-1-0.3,1.4-0.5,2-0.5C253.5,136.8,259.3,135.5,264.6,135.6z"></path> <path class="st1" d="M260.6,138.8c0.8,0.3-1,0.2-1.5,0.2c-2.1,0.1-5.9,0.7-6.9,0.3c-0.7-0.3,1.3-0.4,1.9-0.4 C256,138.7,259,138.1,260.6,138.8z"></path> <path class="st2" d="M245.5,85.3c-3.6,2.8-8.4,5.7-12.9,8.2c1.7-1.6,4.1-2.8,6.3-4.2C241,87.8,243.2,86.3,245.5,85.3z"></path> <path class="st1" d="M199,158.4c0,0.5-0.1,0.9-0.4,1.1C197.2,159.5,198,157.3,199,158.4z"></path> <path class="st1" d="M192.9,159.5c0.9-0.1,0.7,0.9,1.6,0.8c-0.2,1-1.4,1-1.9,1.8c-2.3,0.6-4,2.5-6.4,2.6c-0.7,0.3-0.9,1.1-1.4,1.6 c-1-0.6-0.7,0.5-1.9,0.4c-0.5,0.5-0.5,1.6-1.5,1.6c-0.1-0.7,0.6-0.8,0.5-1.5c-0.1-0.7-1-0.5-1.8-0.5c-0.2-0.4-0.3-0.6-0.1-1 c1.7,0,2.5-0.1,3.4,0.3c0.2-0.3-0.5-1.3,0.3-1.5c0.6,0.1,0.7,0.6,0.7,1.2c1-0.5,1.7-1.4,2.3-2.3c0-0.5-0.7-0.8-0.4-1.2 c1.3-0.1,1.4,1.2,0.8,1.9c0.2,0.2,0.8-0.3,1.4-0.3c0.3-0.4-0.1-0.8,0.1-1.1c1.4,0.4,2.4-0.4,3.1-1.4c0.4-0.1,0.3,0.4,0.5,0.4 C193.3,161,192.4,160.1,192.9,159.5z"></path> <path class="st1" d="M180.1,135.4c0.4-0.1,0.3,0.3,0.4,0.4c-0.4,1.1-1.9,0.5-2.9,0.5c-4.1,0.2-7.8,0.1-12.6,0.3 c-4.4,0.2-9.1,0.6-13.2,0.8c-3.4,0.2-6.7-0.5-9-0.3c-0.8,0.1-1.9,0.6-2.6-0.1c0.6-0.8,2.4-0.5,3.5-0.5c1.9,0,3.8,0.1,5.4,0.3 c3.6,0.3,8.1-0.3,12.4-0.5c3.9-0.2,7.8-0.3,11.1-0.4C175.4,135.7,178.1,136.1,180.1,135.4z"></path> <path class="st1" d="M162.7,173.9c1.7-0.2,2.7,2.4,0.7,2.6c0.1-0.4,0.3-0.7,0.5-1c-0.3-0.5-1-0.6-1.4-1.1 C162.6,174.2,162.7,174.2,162.7,173.9z"></path> <path class="st1" d="M157,114.9c3.2-0.6,0.3,1.9-2.3,2.9c-7.5,2.8-16,6.2-22.6,9.4c3.7-0.4,11.7-2.2,12.4-1.6 c1.3,1-4.7,4.3-6.7,5.2c-0.2-0.4-0.4-0.8-0.3-1.5c1.1-0.9,3.2-1.4,4.4-2.4c-5,0.5-11,2.7-15.6,3.2c-0.8,0.1-0.6-1.7-0.1-2 c5.9-3.8,16.3-7.2,23.3-10c-2.3,0.2-6.1,1.2-8.8,1.7c-5,1-10.4,2.6-15.4,3.9c-2.6,0.7-5.1,1.8-7.7,1.6c-0.3-0.5,0-1-0.3-1.6 c8.9-3.6,21.6-7.6,27-10.2c0.7-0.3,1-0.3,1.2,0.2c0.4,1.2-1.9,2-3.1,2.4c-4.2,1.7-7.7,3-11.9,4.2c-0.1,0-1.4,0.4-2,0.6 c-0.6,0.3-1,0.4-1.2,0.7C135.8,119.7,148,116.5,157,114.9z"></path> <path class="st1" d="M154.9,172.4c0.3-0.9,2.3-0.6,2.2,0.4c-0.8-0.3-0.8-0.3-1.5-0.3C155.2,172.5,154.7,172.8,154.9,172.4z"></path> <path class="st2" d="M143.1,165.2c0.1,0.3-0.2,0.9,0.1,1c-0.3,0.3-1.1,0.4-1.8,0.7C141.5,166,142,164.9,143.1,165.2z"></path> <path class="st2" d="M140.6,165.9c0.3,0.5-0.1,1.1,0.1,1.5c-0.7,0.3-1.3-0.1-2.2,0.1C137.8,166.1,139.7,164.7,140.6,165.9z"></path> <path class="st1" d="M127.4,140.4c0.2,0.9,0.1,1.6,0.2,2.6c-0.3,0.1-0.7,0.1-1,0.1c-0.1-0.7,0.1-2,0-2.6 C126.8,140.5,127.1,140.4,127.4,140.4z"></path> <path class="st1" d="M129.5,140.2c0.2,0.9,0.1,1.6,0.2,2.6c-0.3,0.1-0.7,0.1-1,0.1c-0.1-0.7,0.1-2,0-2.6 C129,140.2,129.3,140.2,129.5,140.2z"></path> <path class="st1" d="M131.6,139.9c0.2,0.9,0.1,1.6,0.2,2.6c-0.3,0.1-0.7,0.1-1,0.1c-0.1-0.7,0.1-2,0-2.6 C131.1,140,131.4,139.9,131.6,139.9z"></path> <path class="st1" d="M389.5,132.9c-0.9,0.5-2,0.2-3.2,0c-2.8-0.4-6.3-0.2-9.5-0.1c-9,0.2-18.4,0.3-27.6,0.7c-2,0.1-6.7,0.5-6.7-0.3 c0-0.4,1.8-0.1,2.6,0c0.3,0,1.3-0.1,1.6-0.1c7.2,0,17.5-0.5,26.2-0.7C378.5,132.2,384.6,132.1,389.5,132.9z"></path> <path class="st1" d="M324.9,158.2c-1.2,0.5-2.6,0.2-4.2,0c-3.6-0.4-8.1-0.2-12.3-0.1c-11.6,0.2-23.8,0.3-35.7,0.7 c-2.6,0.1-6.2,0.8-8.6-0.3c1.1-0.7,2.3-0.1,3.4,0c0.4,0,1.7-0.1,2.1-0.1c9.3,0,22.7-0.5,33.9-0.7 C310.7,157.5,318.6,157.4,324.9,158.2z"></path> <path class="st1" d="M163.9,165.7c0.4-1.1,3.6-0.8,3.7,0.3C166.6,165.7,165.1,165.4,163.9,165.7z"></path> <path class="st1" d="M139.3,176.7c0.7-0.7-0.3-1.3-0.2-2.1c2.8,1.2-0.8,4.2-2.8,3.8c0.4-0.5,1.4-0.6,2-0.9c0-0.5,0-0.7,0.1-0.9 C138.7,176.5,139,176.6,139.3,176.7z"></path> <path class="st1" d="M140.5,173.8c0.1-1-1-0.9-1.5-1.5c3-0.8,2,3.8,0.2,4.7c0-0.7,0.7-1.3,1-2c-0.3-0.4-0.4-0.5-0.5-0.8 C139.9,174,140.2,173.9,140.5,173.8z"></path> <path class="st1" d="M129.5,181c1,0.2,1-0.9,1.6-1.3c0.5,3-4,1.6-4.7-0.3c0.7,0.1,1.2,0.9,1.8,1.2c0.5-0.3,0.6-0.3,0.8-0.4 C129.4,180.3,129.5,180.6,129.5,181z"></path> </g> </svg> 