<?xml version="1.0" encoding="UTF-8"?> <!-- Generator: Adobe Illustrator 24.0.1, SVG Export Plug-In . SVG Version: 6.00 Build 0) --> <svg xmlns="http://www.w3.org/2000/svg" xmlns:xlink="http://www.w3.org/1999/xlink" version="1.1" id="Main" x="0px" y="0px" width="510.2px" height="510.2px" viewBox="0 0 510.2 510.2" style="enable-background:new 0 0 510.2 510.2;" xml:space="preserve"> <style type="text/css"> .st0{fill:#C52C1E;} </style> <g> <path class="st0" d="M219,440.5c-79.7,0-144.5-50.2-144.5-112s64.8-112,144.5-112s144.5,50.2,144.5,112S298.7,440.5,219,440.5z M219,231c-71.7,0-130,43.7-130,97.5S147.3,426,219,426s130-43.7,130-97.5S290.7,231,219,231z"></path> <path class="st0" d="M396,223.8c-18.2,0-32.5-11.1-32.5-25.3s14.3-25.3,32.5-25.3s32.5,11.1,32.5,25.3S414.2,223.8,396,223.8z M396,187.7c-10.6,0-18.1,5.7-18.1,10.8s7.4,10.8,18.1,10.8s18.1-5.7,18.1-10.8S406.6,187.7,396,187.7z"></path> <path class="st0" d="M229.8,469.4c-97.6,0-177-55.1-177-122.8c0-33.6,19-64.9,53.6-88.2l8.1,12C84,290.9,67.3,318,67.3,346.6 c0,59.8,72.9,108.4,162.5,108.4s162.5-48.6,162.5-108.4c0-22.2-10.1-43.5-29.2-61.8l-4.8-4.6l33.6-42h3.5 c1.5-0.1,47.5-3.5,47.5-39.7c0-21.9-21.1-39.7-47-39.7s-47,17.8-47,39.7c0,1.9,0.2,3.8,0.5,5.6l0.5,3.1l-36.2,46.1l-11.4-8.9 l32.3-41.2c-0.2-1.6-0.2-3.1-0.2-4.7c0-29.9,27.6-54.2,61.4-54.2s61.4,24.3,61.4,54.2c0,41-42,52.4-58.3,54l-21.2,26.6 c19,20,29,43.2,29,67.5C406.8,414.4,327.4,469.4,229.8,469.4z"></path> <path class="st0" d="M186.8,408.4c-49.9-10.3-83.4-42.4-83.4-79.8c0-20.7,10.5-40.4,29.6-55.7l9,11.3 c-15.6,12.4-24.2,28.2-24.2,44.4c0,29.9,29.6,57,71.9,65.7L186.8,408.4z"></path> <path class="st0" d="M219,411.7c-4.5,0-9.1-0.2-13.5-0.6l1.2-14.4c4.1,0.3,8.2,0.5,12.3,0.5V411.7z"></path> <path class="st0" d="M234.1,411l-1.3-14.4c49.8-4.6,87.3-33.9,87.3-68h14.4C334.6,370.2,291.4,405.6,234.1,411z"></path> <path class="st0" d="M182.9,368.3c-23.9,0-43.3-19.4-43.3-43.3c0-13.4,3.8-24.1,11.3-31.8c5.5-5.6,15.1-5.6,20.5-0.1l5.5,5.5 l8.6-10.8c4.9-7,15.9-8,22-1.9l14.5,14.5c2.7,2.7,4.2,6.4,4.2,10.2c0,4.8-2.4,9.3-6.4,12l-10.6,8.5l5.5,5.5 c2.7,2.7,4.2,6.4,4.2,10.2c0,3.9-1.6,7.6-4.4,10.4C207.1,364.5,196.4,368.3,182.9,368.3z M161.2,303.3c-4.8,4.9-7.2,12.2-7.2,21.7 c0,15.9,13,28.9,28.9,28.9c9.6,0,16.8-2.4,21.6-7.2l-16.8-16.9l23.6-18.9l-14-14.8l-0.4,0.5L178,320.2L161.2,303.3z"></path> <path class="st0" d="M295,319.6l-12.5-7.3c1-1.7,1.5-3.5,1.5-5.5c0-6-4.9-10.8-10.8-10.8c-1.9,0-3.7,0.5-5.3,1.4l-7.1-12.6 c3.8-2.1,8.1-3.2,12.4-3.2c13.9,0,25.3,11.3,25.3,25.3C298.5,311.4,297.3,315.8,295,319.6z"></path> <rect x="240.3" y="343.1" transform="matrix(0.7071 -0.7071 0.7071 0.7071 -174.0876 280.3376)" class="st0" width="22.2" height="14.4"></rect> <rect x="190.1" y="252.7" class="st0" width="28.9" height="14.4"></rect> <polygon class="st0" points="262.3,252.7 247.9,252.7 247.9,267.2 262.3,267.2 "></polygon> <polygon class="st0" points="298.5,339.4 284,339.4 284,353.9 298.5,353.9 "></polygon> <polygon class="st0" points="255.1,310.5 240.7,310.5 240.7,325 255.1,325 "></polygon> <rect x="141.4" y="65.3" transform="matrix(0.5255 -0.8508 0.8508 0.5255 8.157 159.6118)" class="st0" width="11.5" height="14.4"></rect> <path class="st0" d="M162.1,197.1l-10.2-10.2l5.9-5.9c2.2-2.2,3.5-5.2,3.5-8.4c0-5.1-3.3-9.6-8.1-11.3l-5.7-1.9 c-17.7-5.9-29.5-22.4-29.5-41c0-8,2.2-15.9,6.4-22.7l2.8-4.5l12.3,7.6l-2.8,4.5c-2.8,4.5-4.3,9.7-4.3,15.1 c0,12.4,7.9,23.3,19.6,27.3l5.7,1.9c10.8,3.6,18,13.6,18,25c0,7-2.7,13.6-7.7,18.6L162.1,197.1z"></path> <rect x="190.1" y="158.8" class="st0" width="14.4" height="14.4"></rect> <path class="st0" d="M204.5,144.4h-14.4v-4.2c0-4.7-1.8-9-5.1-12.3c-6-6-9.3-14-9.3-22.5c0-9.3,3.6-18.1,10.2-24.7l10.6-10.6 l10.2,10.2l-10.6,10.6c-3.9,3.9-6,9-6,14.4c0,4.7,1.8,9,5.1,12.3c6,6,9.3,14,9.3,22.5V144.4z"></path> <path class="st0" d="M103.4,216.6H89v-4.2c0-8.5,3.3-16.5,9.3-22.5c3.3-3.3,5.1-7.7,5.1-12.3c0-5.5-2.1-10.6-6-14.4l-10.6-10.6 L97,142.2l10.6,10.6c6.6,6.6,10.2,15.3,10.2,24.7c0,8.5-3.3,16.5-9.3,22.5c-3.3,3.3-5.1,7.7-5.1,12.3 C103.4,212.3,103.4,216.6,103.4,216.6z"></path> </g> </svg> 