<?xml version="1.0" encoding="UTF-8"?> <!-- Generator: Adobe Illustrator 24.0.1, SVG Export Plug-In . SVG Version: 6.00 Build 0) --> <svg xmlns="http://www.w3.org/2000/svg" xmlns:xlink="http://www.w3.org/1999/xlink" version="1.1" id="Main" x="0px" y="0px" width="510.2px" height="510.2px" viewBox="0 0 510.2 510.2" style="enable-background:new 0 0 510.2 510.2;" xml:space="preserve"> <style type="text/css"> .st0{fill:#C52C1E;} </style> <g> <rect x="383.8" y="305.8" class="st0" width="15.1" height="15.1"></rect> <path class="st0" d="M126.4,343.7h-15.1v-98.4c0-79.3,64.5-143.8,143.8-143.8S399,165.9,399,245.3v45.4h-15.1v-45.4 c0-71-57.7-128.7-128.7-128.7c-69.8,0-128.7,58.9-128.7,128.7L126.4,343.7L126.4,343.7z"></path> <rect x="323.3" y="366.4" class="st0" width="15.1" height="15.1"></rect> <rect x="353.5" y="366.4" class="st0" width="83.3" height="15.1"></rect> <path class="st0" d="M436.8,351.3H303.6v-15.1h133.2V78.7H452v257.4C452,344.5,445.2,351.3,436.8,351.3z"></path> <path class="st0" d="M137.2,351.3H73.4c-8.3,0-15.1-6.8-15.1-15.1V78.7h15.1v257.4h63.7L137.2,351.3L137.2,351.3z"></path> <path class="st0" d="M346,343.7h-15.1v-90.9c0-43.9-31.8-75.7-75.7-75.7c-41.7,0-75.7,34-75.7,75.7v32.6h-15.1v-32.6 c0-50.1,40.8-90.9,90.9-90.9c52.6,0,90.9,38.2,90.9,90.9v90.9H346z"></path> <rect x="190.1" y="65.1" transform="matrix(0.8892 -0.4576 0.4576 0.8892 -14.3692 99.2511)" class="st0" width="15.2" height="28.4"></rect> <rect x="138.4" y="87.1" transform="matrix(0.8275 -0.5615 0.5615 0.8275 -32.2091 99.5674)" class="st0" width="15.1" height="30.1"></rect> <rect x="247.5" y="56" class="st0" width="15.1" height="30.3"></rect> <rect x="298.4" y="71.7" transform="matrix(0.4577 -0.8891 0.8891 0.4577 99.0174 320.8975)" class="st0" width="28.4" height="15.2"></rect> <rect x="349.1" y="94.6" transform="matrix(0.5617 -0.8274 0.8274 0.5617 75.1276 346.0946)" class="st0" width="30.1" height="15.1"></rect> <path class="st0" d="M228.6,389.1c-47.4,0-85.7-28.1-87.1-64.1c-0.5-12.9,4.7-25.5,15-36.4c16.4-17.3,43.2-27.8,71.9-28.2 c27.4-0.5,53.2,9.1,69.7,25.3c11.5,11.3,17.5,24.8,17.5,39C315.7,360.2,276.6,389.1,228.6,389.1z M230.1,275.5c-0.5,0-0.9,0-1.4,0 c-24.3,0.3-47.7,9.4-61.1,23.5c-7.5,7.9-11.2,16.7-10.9,25.4c1.1,27.8,32.7,49.5,71.9,49.5c39.7,0,71.9-22.1,71.9-49.2 c0-10.1-4.5-19.9-13-28.3C274.2,283.3,252.8,275.5,230.1,275.5z"></path> <path class="st0" d="M155.5,410.9l-43.7-23.5c-5-2.5-8.1-7.7-8.1-13.4c0-4,1.6-7.8,4.4-10.7l36.1-38l11,10.4L119,373.8l43.7,23.8 L155.5,410.9z"></path> <rect x="71.9" y="417.2" transform="matrix(0.7071 -0.7071 0.7071 0.7071 -267.1645 204.5703)" class="st0" width="83" height="15.1"></rect> <path class="st0" d="M134.8,474.7L124.1,464l56.6-56.7l36.2,19.5c0.2,0.1,0.5,0.2,0.8,0.2l70.8-75.2l11,10.4l-71.4,75.3 c-3,3-6.8,4.6-10.8,4.6c-2.2,0-4.7-0.8-6-1.3l-1-0.4L183.5,426L134.8,474.7z"></path> <rect x="179.4" y="321" class="st0" width="30.3" height="15.1"></rect> <rect x="247.8" y="309.9" transform="matrix(0.8001 -0.5998 0.5998 0.8001 -138.025 220.739)" class="st0" width="28.9" height="15.1"></rect> <rect x="228.6" y="335.9" transform="matrix(0.6903 -0.7236 0.7236 0.6903 -179.0129 278.7951)" class="st0" width="15.1" height="25.1"></rect> <rect x="209.7" y="290.7" class="st0" width="30.3" height="15.1"></rect> <rect x="199.1" y="119.9" transform="matrix(0.7071 -0.7071 0.7071 0.7071 -46.5836 190.5147)" class="st0" width="15.1" height="63.1"></rect> <rect x="272.4" y="143.6" transform="matrix(0.7071 -0.7071 0.7071 0.7071 -17.8723 259.0564)" class="st0" width="62.8" height="15.1"></rect> <rect x="325.4" y="191.5" transform="matrix(0.9049 -0.4256 0.4256 0.9049 -51.1371 169.2697)" class="st0" width="55.7" height="15.1"></rect> <rect x="163.1" y="192.1" transform="matrix(0.4257 -0.9049 0.9049 0.4257 -87.9343 272.4948)" class="st0" width="15.1" height="26.8"></rect> </g> </svg> 